<svg width="479" height="101" viewBox="0 0 479 101" fill="none" xmlns="http://www.w3.org/2000/svg">
<path d="M0.00140886 17.651C0.166161 4.1944 14.5868 -4.25436 26.3382 2.22161L26.6177 2.3786L27.3606 2.80433V22.8196L18.0311 17.4699C17.7097 17.2858 17.31 17.5199 17.3116 17.8914L17.6131 83.1132C17.6148 83.4617 17.9681 83.6861 18.2758 83.5583L18.3364 83.5281L74.4495 50.6553C74.7492 50.4797 74.7659 50.0603 74.5021 49.8567L74.4458 49.8189L53.8097 37.9858V17.9706L83.0318 34.7276C94.9253 41.5475 95.0052 58.7354 83.1751 65.666L27.0619 98.5388C15.232 105.469 0.364569 96.9444 0.301027 83.1938L0 17.972L0.00140886 17.651Z" fill="url(#paint0_linear_2_42)"/>
<path d="M115.936 40.104H125.6L133.536 63.784L141.344 40.104H150.816L138.976 73H127.776L115.936 40.104Z" fill="white"/>
<path d="M158.367 26.408C159.861 26.408 161.098 26.8987 162.079 27.88C163.061 28.8187 163.551 30.0133 163.551 31.464C163.551 32.9147 163.061 34.1307 162.079 35.112C161.098 36.0933 159.861 36.584 158.367 36.584C156.874 36.584 155.616 36.0933 154.592 35.112C153.61 34.1307 153.12 32.9147 153.12 31.464C153.12 30.0133 153.61 28.8187 154.592 27.88C155.616 26.8987 156.874 26.408 158.367 26.408ZM153.824 40.104H162.848V73H153.824V40.104Z" fill="white"/>
<path d="M202.032 28.2V73H194.16L193.264 68.456C190.747 71.7413 187.333 73.384 183.024 73.384C180.123 73.384 177.52 72.7013 175.216 71.336C172.912 69.928 171.099 67.944 169.776 65.384C168.496 62.824 167.856 59.8587 167.856 56.488C167.856 53.16 168.496 50.2373 169.776 47.72C171.099 45.16 172.912 43.1973 175.216 41.832C177.563 40.424 180.187 39.72 183.088 39.72C187.355 39.72 190.661 41.2133 193.008 44.2V28.2H202.032ZM185.136 66.024C187.568 66.024 189.509 65.1707 190.96 63.464C192.411 61.7147 193.136 59.432 193.136 56.616C193.136 53.7573 192.411 51.4533 190.96 49.704C189.509 47.9547 187.568 47.08 185.136 47.08C182.704 47.08 180.741 47.9547 179.248 49.704C177.797 51.4533 177.072 53.736 177.072 56.552C177.072 59.368 177.797 61.6507 179.248 63.4C180.741 65.1493 182.704 66.024 185.136 66.024Z" fill="white"/>
<path d="M207.044 56.616C207.044 53.2027 207.726 50.2373 209.092 47.72C210.5 45.16 212.441 43.1973 214.915 41.832C217.433 40.424 220.334 39.72 223.62 39.72C226.948 39.72 229.87 40.3813 232.387 41.704C234.947 42.984 236.932 44.8187 238.34 47.208C239.79 49.5547 240.537 52.328 240.579 55.528C240.579 56.68 240.494 57.704 240.324 58.6H216.452V58.856C216.665 61.2453 217.433 63.1227 218.755 64.488C220.078 65.8533 221.891 66.536 224.195 66.536C226.03 66.536 227.545 66.152 228.74 65.384C229.977 64.5733 230.788 63.4 231.172 61.864H240.068C239.726 64.04 238.894 66.0027 237.572 67.752C236.249 69.5013 234.499 70.888 232.324 71.912C230.148 72.8933 227.651 73.384 224.835 73.384C221.166 73.384 217.988 72.7013 215.299 71.336C212.654 69.9707 210.606 68.0293 209.156 65.512C207.747 62.952 207.044 59.9867 207.044 56.616ZM231.555 52.712C231.257 50.7067 230.425 49.1707 229.06 48.104C227.737 46.9947 226.051 46.44 224.003 46.44C222.041 46.44 220.377 47.016 219.012 48.168C217.689 49.2773 216.899 50.792 216.643 52.712H231.555Z" fill="white"/>
<path d="M261.575 73.384C258.119 73.384 255.068 72.7013 252.423 71.336C249.82 69.928 247.794 67.944 246.343 65.384C244.935 62.824 244.231 59.88 244.231 56.552C244.231 53.224 244.935 50.28 246.343 47.72C247.794 45.16 249.82 43.1973 252.423 41.832C255.068 40.424 258.119 39.72 261.575 39.72C265.031 39.72 268.06 40.424 270.663 41.832C273.308 43.1973 275.335 45.16 276.743 47.72C278.194 50.28 278.919 53.224 278.919 56.552C278.919 59.9227 278.194 62.888 276.743 65.448C275.335 67.9653 273.308 69.928 270.663 71.336C268.06 72.7013 265.031 73.384 261.575 73.384ZM261.575 66.024C264.092 66.024 266.076 65.1493 267.527 63.4C269.02 61.6507 269.767 59.368 269.767 56.552C269.767 53.736 269.02 51.4533 267.527 49.704C266.076 47.9547 264.092 47.08 261.575 47.08C259.1 47.08 257.116 47.9547 255.623 49.704C254.172 51.4533 253.447 53.736 253.447 56.552C253.447 59.368 254.172 61.6507 255.623 63.4C257.116 65.1493 259.1 66.024 261.575 66.024Z" fill="white"/>
<path d="M279.812 40.104H289.349L295.94 63.272L302.148 40.104H310.276L316.293 63.336L323.013 40.104H332.229L321.413 73H311.812L306.052 53.16L300.164 73H290.565L279.812 40.104Z" fill="white"/>
<path d="M333.168 56.616C333.168 53.2027 333.851 50.2373 335.216 47.72C336.624 45.16 338.566 43.1973 341.04 41.832C343.558 40.424 346.459 39.72 349.745 39.72C353.073 39.72 355.995 40.3813 358.513 41.704C361.073 42.984 363.057 44.8187 364.465 47.208C365.915 49.5547 366.662 52.328 366.704 55.528C366.704 56.68 366.619 57.704 366.448 58.6H342.577V58.856C342.79 61.2453 343.558 63.1227 344.88 64.488C346.203 65.8533 348.017 66.536 350.32 66.536C352.155 66.536 353.67 66.152 354.865 65.384C356.102 64.5733 356.913 63.4 357.297 61.864H366.193C365.851 64.04 365.019 66.0027 363.697 67.752C362.374 69.5013 360.624 70.888 358.448 71.912C356.272 72.8933 353.777 73.384 350.961 73.384C347.291 73.384 344.112 72.7013 341.424 71.336C338.779 69.9707 336.731 68.0293 335.28 65.512C333.872 62.952 333.168 59.9867 333.168 56.616ZM357.681 52.712C357.382 50.7067 356.55 49.1707 355.185 48.104C353.862 46.9947 352.177 46.44 350.129 46.44C348.166 46.44 346.502 47.016 345.137 48.168C343.814 49.2773 343.025 50.792 342.768 52.712H357.681Z" fill="white"/>
<path d="M376.18 26.408C377.673 26.408 378.911 26.8987 379.892 27.88C380.873 28.8187 381.364 30.0133 381.364 31.464C381.364 32.9147 380.873 34.1307 379.892 35.112C378.911 36.0933 377.673 36.584 376.18 36.584C374.687 36.584 373.428 36.0933 372.404 35.112C371.423 34.1307 370.932 32.9147 370.932 31.464C370.932 30.0133 371.423 28.8187 372.404 27.88C373.428 26.8987 374.687 26.408 376.18 26.408ZM371.636 40.104H380.66V73H371.636V40.104Z" fill="white"/>
<path d="M394.309 62.056C394.436 63.5067 395.141 64.68 396.421 65.576C397.701 66.472 399.343 66.92 401.349 66.92C403.269 66.92 404.783 66.6213 405.893 66.024C407.002 65.384 407.556 64.488 407.556 63.336C407.556 62.4827 407.301 61.8427 406.789 61.416C406.277 60.9893 405.551 60.6907 404.612 60.52C403.674 60.3067 402.138 60.072 400.005 59.816C397.103 59.432 394.693 58.9413 392.772 58.344C390.852 57.7467 389.316 56.808 388.164 55.528C387.012 54.248 386.436 52.5413 386.436 50.408C386.436 48.2747 387.012 46.3973 388.164 44.776C389.359 43.112 391.023 41.832 393.156 40.936C395.29 40.04 397.743 39.592 400.517 39.592C404.997 39.6347 408.602 40.5947 411.332 42.472C414.106 44.3493 415.599 46.952 415.812 50.28H407.237C407.109 49.0427 406.447 48.04 405.253 47.272C404.1 46.4613 402.607 46.056 400.772 46.056C399.066 46.056 397.679 46.376 396.612 47.016C395.589 47.656 395.077 48.5093 395.077 49.576C395.077 50.344 395.354 50.92 395.909 51.304C396.463 51.688 397.189 51.9653 398.085 52.136C398.98 52.3067 400.474 52.4987 402.565 52.712C407.002 53.224 410.394 54.184 412.741 55.592C415.13 56.9573 416.324 59.3253 416.324 62.696C416.324 64.8293 415.685 66.7067 414.405 68.328C413.167 69.9493 411.418 71.208 409.156 72.104C406.938 72.9573 404.357 73.384 401.413 73.384C396.847 73.384 393.135 72.3813 390.276 70.376C387.418 68.328 385.903 65.5547 385.733 62.056H394.309Z" fill="white"/>
<path d="M420.231 56.616C420.231 53.2027 420.914 50.2373 422.279 47.72C423.687 45.16 425.628 43.1973 428.103 41.832C430.62 40.424 433.522 39.72 436.807 39.72C440.135 39.72 443.058 40.3813 445.575 41.704C448.135 42.984 450.119 44.8187 451.527 47.208C452.978 49.5547 453.724 52.328 453.767 55.528C453.767 56.68 453.682 57.704 453.511 58.6H429.639V58.856C429.852 61.2453 430.62 63.1227 431.943 64.488C433.266 65.8533 435.079 66.536 437.383 66.536C439.218 66.536 440.732 66.152 441.927 65.384C443.164 64.5733 443.975 63.4 444.359 61.864H453.255C452.914 64.04 452.082 66.0027 450.759 67.752C449.436 69.5013 447.687 70.888 445.511 71.912C443.335 72.8933 440.839 73.384 438.023 73.384C434.354 73.384 431.175 72.7013 428.487 71.336C425.842 69.9707 423.794 68.0293 422.343 65.512C420.935 62.952 420.231 59.9867 420.231 56.616ZM444.743 52.712C444.444 50.7067 443.612 49.1707 442.247 48.104C440.924 46.9947 439.239 46.44 437.191 46.44C435.228 46.44 433.564 47.016 432.199 48.168C430.876 49.2773 430.087 50.792 429.831 52.712H444.743Z" fill="white"/>
<path d="M478.73 40.104V48.296H475.147C472.587 48.296 470.709 49.064 469.514 50.6C468.32 52.136 467.723 54.2267 467.723 56.872V73H458.698V40.104H466.891L467.723 45.032C468.704 43.4107 469.92 42.1947 471.371 41.384C472.821 40.5307 474.762 40.104 477.194 40.104H478.73Z" fill="white"/>
<defs>
<linearGradient id="paint0_linear_2_42" x1="23.9879" y1="6.3741" x2="65.9313" y2="164.186" gradientUnits="userSpaceOnUse">
<stop stop-color="#6320EE"/>
<stop offset="1" stop-color="#8075FF"/>
</linearGradient>
</defs>
</svg>
