<svg width="86" height="48" viewBox="0 0 86 48" fill="none" xmlns="http://www.w3.org/2000/svg">
<g clip-path="url(#clip0_58_256)">
<path d="M49.2862 8.40393C48.0364 8.21171 46.7547 8.04627 45.4486 7.91244C44.145 7.77862 42.8146 7.67157 41.4671 7.59857C40.1195 7.52559 38.7524 7.48179 37.3707 7.47206C35.989 7.46232 34.5951 7.48666 33.1914 7.54504C29.2854 7.70806 25.6701 8.13142 22.4575 8.75918C19.2106 9.39424 16.3544 10.2458 14.0206 11.2579C11.6478 12.2872 9.80223 13.4939 8.64019 14.8175C7.45137 16.1704 6.97045 17.6521 7.37325 19.2044C7.55634 19.91 7.91275 20.601 8.43029 21.2676C8.95272 21.9441 9.63865 22.5961 10.476 23.2214C11.3182 23.8541 12.3118 24.455 13.4396 25.0219C14.5772 25.5937 15.8491 26.129 17.2406 26.6205C16.9819 26.348 16.7401 26.0706 16.5205 25.7933C16.3031 25.5158 16.103 25.236 15.9272 24.9538C15.7514 24.6716 15.5952 24.3894 15.4609 24.1047C15.3291 23.82 15.2168 23.5329 15.129 23.2458C14.5137 21.2434 15.0094 19.3431 16.3886 17.618C17.7337 15.9368 19.9259 14.4161 22.7772 13.1193C25.57 11.8492 29.012 10.7884 32.9448 9.99758C36.8288 9.21655 41.2229 8.69344 46.0028 8.49152C46.2762 8.47936 46.5497 8.46962 46.8255 8.45989C47.0989 8.45016 47.3724 8.44286 47.6457 8.43556C47.9191 8.42826 48.1925 8.42339 48.466 8.41852C48.7394 8.41366 49.0128 8.4088 49.2862 8.40636" fill="#DAE3AF"/>
<path d="M69.6554 11.0755C68.0075 10.6789 66.2792 10.3359 64.4922 10.0463C62.715 9.75918 60.8744 9.5256 58.9971 9.35049C57.1247 9.17769 55.2107 9.06095 53.2725 9.01226C51.339 8.96358 49.3787 8.97575 47.4136 9.05846C45.6535 9.13389 43.9593 9.26289 42.3432 9.438C40.7222 9.61569 39.1745 9.83949 37.7122 10.1096C36.2427 10.3797 34.8536 10.6935 33.5573 11.0487C32.2537 11.4039 31.0429 11.8005 29.9346 12.2337C30.5644 12.1533 31.204 12.0779 31.8509 12.0074C32.4978 11.9392 33.1521 11.876 33.8136 11.8176C34.4752 11.7616 35.1441 11.7105 35.8227 11.6667C36.4989 11.6229 37.185 11.5864 37.8807 11.5573C40.3316 11.4526 42.768 11.4332 45.1677 11.4988C47.5698 11.5621 49.9402 11.7081 52.2569 11.9271C54.581 12.1485 56.8561 12.4454 59.0532 12.8127C61.265 13.1826 63.4034 13.6205 65.4418 14.1266C67.4973 14.6375 69.4552 15.2142 71.2885 15.8517C73.1389 16.4964 74.8624 17.2045 76.4297 17.9709C78.014 18.7471 79.4421 19.5816 80.6749 20.4721C81.9248 21.3747 82.9795 22.3335 83.7996 23.3456C83.8948 23.4624 83.9852 23.5791 84.0731 23.6984C84.1609 23.8152 84.244 23.9319 84.3245 24.0512C84.4051 24.168 84.4808 24.2872 84.554 24.404C84.6272 24.5208 84.698 24.6424 84.764 24.7592C85.1668 24.2434 85.4646 23.7105 85.655 23.168C85.8429 22.6303 85.926 22.0803 85.8967 21.5256C85.8673 20.9757 85.7307 20.4161 85.4792 19.8566C85.2302 19.2993 84.8714 18.7422 84.3978 18.185C83.746 17.4161 82.9062 16.6838 81.9077 15.9903C80.9215 15.3067 79.779 14.6619 78.5071 14.0633C77.2475 13.4697 75.8609 12.9198 74.3717 12.4185C72.8923 11.9223 71.313 11.4721 69.6529 11.0731" fill="#C7D482"/>
<path d="M68.4764 16.2434C68.8108 16.4794 69.1282 16.7179 69.4333 16.9611C69.7385 17.2045 70.0265 17.4551 70.2999 17.7057C70.5734 17.9587 70.8297 18.2166 71.0689 18.477C71.3082 18.7397 71.5303 19.0049 71.7305 19.2775C73.1806 21.2215 73.5296 23.1801 72.8754 25.0585C72.2016 26.9903 70.4733 28.8297 67.8124 30.4721C65.088 32.1534 61.4066 33.6132 56.9246 34.7373C52.3766 35.8785 47.05 36.6619 41.1642 36.966C40.8249 36.9831 40.4855 37.0001 40.1462 37.0123C39.8069 37.0269 39.4676 37.039 39.1283 37.0487C38.7889 37.0609 38.4496 37.0683 38.1127 37.0755C37.7758 37.0828 37.4365 37.0877 37.0996 37.0925C38.6253 37.3893 40.2048 37.6449 41.8257 37.8541C43.4517 38.0658 45.1189 38.2312 46.8156 38.3505C48.5146 38.4672 50.2406 38.5378 51.9787 38.5524C53.7169 38.5695 55.4672 38.5329 57.2151 38.4429C62.0756 38.1874 66.4331 37.5329 70.1242 36.5719C73.7713 35.6254 76.7374 34.3893 78.9002 32.9661C81.0217 31.5694 82.3546 29.9952 82.8013 28.3359C83.2383 26.7154 82.8257 25.0196 81.4807 23.3261C80.8899 22.584 80.1453 21.8736 79.264 21.1971C78.3925 20.5281 77.3891 19.8955 76.2711 19.2993C75.1653 18.7106 73.9471 18.1558 72.6362 17.6449C71.3374 17.1363 69.9435 16.6667 68.4764 16.241" fill="#DAE3AF"/>
<path d="M58.4405 31.4575C57.735 31.567 57.0148 31.6667 56.2825 31.7592C55.5502 31.8517 54.8032 31.9368 54.0464 32.0122C53.2871 32.0876 52.5157 32.1558 51.7321 32.2141C50.9485 32.2726 50.1526 32.3237 49.3446 32.3626C46.4884 32.5062 43.6395 32.528 40.837 32.4404C38.0369 32.3528 35.2906 32.1534 32.637 31.8541C29.9932 31.5572 27.4495 31.1606 25.04 30.6813C22.6477 30.202 20.392 29.6375 18.3097 29.0025C16.2444 28.3723 14.3549 27.6716 12.6656 26.9101C10.9958 26.1582 9.52863 25.3504 8.29093 24.4964C7.06789 23.6521 6.07188 22.7641 5.32488 21.8443C4.58764 20.9368 4.09695 19.9976 3.87481 19.0365C3.85039 18.9271 3.82842 18.8176 3.8089 18.7081C3.79181 18.5986 3.77715 18.4915 3.76739 18.3821C3.75519 18.2725 3.75031 18.1655 3.74542 18.0584C3.74054 17.9514 3.74054 17.8443 3.74542 17.7397C3.07165 18.2093 2.48088 18.6984 1.97555 19.2044C1.47022 19.7154 1.05278 20.2434 0.735421 20.7883C0.415624 21.3358 0.195916 21.9003 0.0836208 22.4794C-0.0286744 23.0609 -0.0286744 23.657 0.0885035 24.2629C0.254505 25.1144 0.649979 25.9441 1.25296 26.747C1.86326 27.5572 2.68594 28.3382 3.69904 29.0779C4.72434 29.8249 5.94251 30.5329 7.33154 31.1899C8.73278 31.8541 10.3074 32.4624 12.026 33.0098C13.7592 33.5621 15.6365 34.0487 17.6334 34.4623C19.6401 34.8808 21.7639 35.219 23.9732 35.4769C26.1898 35.7349 28.4894 35.9052 30.8379 35.9806C33.1888 36.056 35.586 36.0366 37.9955 35.9125C40.1462 35.803 42.2114 35.6156 44.1717 35.3553C46.1271 35.0998 47.9775 34.7737 49.7083 34.3845C51.4294 34.0001 53.0284 33.5572 54.4906 33.0633C55.9456 32.5718 57.2639 32.0341 58.4381 31.4526" fill="#C7D482"/>
<path d="M21.7521 21.2724C21.4054 20.9634 21.3029 20.5474 21.4762 20.1678C21.6154 19.7883 21.8571 19.4088 22.2379 19.1338C22.548 18.927 22.9288 18.961 23.2754 19.236C24.0713 19.8905 25.1429 20.8224 27.0813 20.8224C29.0195 20.8224 31.5096 18.9611 31.5096 15.1679C31.5096 11.3747 29.2612 10.3406 26.9079 10.3406C25.8704 10.3406 24.9354 10.6496 24.3471 10.8564L24.1396 10.0632C27.9113 8.54497 30.1254 7.23597 30.1254 5.02916C30.1254 2.99509 28.6729 1.92697 26.8395 1.92697C25.0063 1.92697 23.5537 3.54741 22.8263 4.78827L22.1329 4.23597L23.5512 1.99509C24.5205 0.961029 26.0755 0.201904 27.8746 0.201904C31.0238 0.201904 32.9255 2.02916 32.9255 4.5109C32.9255 5.27003 32.5788 6.06321 31.9221 6.68366C31.4388 7.13134 30.5038 7.71772 29.1196 8.51091V8.57901C32.4397 8.85639 34.378 11.1995 34.378 13.7178C34.378 20.0268 27.528 22.545 25.0038 22.545C23.6196 22.545 22.4429 21.9246 21.7521 21.27" fill="white"/>
<path d="M47.5239 16.1703C47.5239 13.2384 46.1398 10.3772 42.9589 10.3772C41.6456 10.3772 40.4347 10.7907 39.6047 11.309C39.4314 12.034 39.3972 12.9294 39.3972 14.2044C39.3972 18.343 41.0914 21.5133 43.9281 21.5133C46.7647 21.5133 47.5239 18.6156 47.5239 16.1703ZM49.8064 0.861317C48.6982 1.06813 47.3165 1.44769 46.0007 2.06812C43.8207 3.10219 40.7764 5.44769 39.8098 10.2749L42.0923 9.13629C42.7489 8.82729 43.4399 8.61797 44.2039 8.61797C47.939 8.61797 50.3948 11.5134 50.3948 14.9611C50.3948 19.0633 47.5581 22.5475 43.269 22.5475C39.4631 22.5475 36.3848 19.3407 36.3848 13.9635C36.3848 6.309 41.6089 2.44769 45.1706 1.13869C46.4864 0.656934 48.1806 0.243309 49.6332 0L49.8064 0.861317Z" fill="white"/>
<path d="M63.9898 11.3771C63.9898 6.58391 63.1598 1.24085 59.9423 1.24085C56.7247 1.24085 55.8606 6.58391 55.8606 11.3771C55.8606 16.1703 56.6906 21.5133 59.9423 21.5133C63.194 21.5133 63.9898 16.1703 63.9898 11.3771ZM66.9656 11.3771C66.9656 16.4112 65.1664 22.5475 59.9423 22.5475C54.7181 22.5475 52.8848 16.4112 52.8848 11.3771C52.8848 6.34304 54.6864 0.206787 59.9448 0.206787C65.2031 0.206787 66.968 6.34304 66.968 11.3771" fill="white"/>
<path d="M13.7716 43.7324L13.3688 44.0414C13.1466 43.7543 12.8805 43.5354 12.5705 43.3869C12.2605 43.2386 11.9187 43.1631 11.5452 43.1631C11.1375 43.1631 10.7616 43.2604 10.4149 43.4551C10.0682 43.6497 9.79975 43.9124 9.60935 44.2385C9.41895 44.567 9.32374 44.9368 9.32374 45.3456C9.32374 45.966 9.53608 46.4818 9.96333 46.8979C10.3905 47.3115 10.9276 47.5208 11.5769 47.5208C12.2898 47.5208 12.8878 47.241 13.3688 46.6838L13.7716 46.9879C13.5177 47.3115 13.2004 47.5597 12.8195 47.7349C12.4387 47.9101 12.0139 48.0001 11.5452 48.0001C10.6542 48.0001 9.94862 47.7056 9.43357 47.112C9.0015 46.6132 8.78418 46.0074 8.78418 45.3018C8.78418 44.5573 9.04545 43.932 9.57031 43.4234C10.0927 42.9149 10.7494 42.6619 11.5379 42.6619C12.0139 42.6619 12.4436 42.7568 12.8269 42.9441C13.2101 43.1315 13.525 43.3942 13.7692 43.7324" fill="white"/>
<path d="M21.364 43.1558C20.9881 43.1558 20.6292 43.2531 20.2899 43.4502C19.9505 43.6448 19.6869 43.91 19.499 44.241C19.3086 44.5742 19.2133 44.9417 19.2133 45.3505C19.2133 45.9538 19.4233 46.4648 19.8431 46.8808C20.263 47.2969 20.7683 47.5037 21.3615 47.5037C21.7571 47.5037 22.1233 47.4088 22.4601 47.2166C22.797 47.0244 23.0607 46.7641 23.2486 46.4307C23.4366 46.0974 23.5318 45.73 23.5318 45.3236C23.5318 44.9174 23.4366 44.5548 23.2486 44.2288C23.0607 43.9028 22.7946 43.64 22.4528 43.4453C22.111 43.2482 21.7473 43.151 21.3615 43.151M21.3396 42.657C22.111 42.657 22.7579 42.9149 23.2779 43.4258C23.7978 43.9417 24.0566 44.5718 24.0566 45.3236C24.0566 46.0755 23.7978 46.6983 23.2779 47.2166C22.7579 47.7349 22.1257 47.9928 21.3787 47.9928C20.6317 47.9928 19.9847 47.7349 19.4647 47.219C18.9448 46.7032 18.6836 46.0803 18.6836 45.348C18.6836 44.859 18.8007 44.4064 19.04 43.9904C19.2767 43.5743 19.599 43.2458 20.0091 43.0098C20.4192 42.7738 20.8611 42.657 21.3371 42.657" fill="white"/>
<path d="M31.6536 43.1558C31.2776 43.1558 30.9188 43.2531 30.5795 43.4502C30.2426 43.6448 29.9765 43.91 29.7885 44.241C29.5981 44.5742 29.5029 44.9417 29.5029 45.3505C29.5029 45.9538 29.7129 46.4648 30.1327 46.8808C30.5527 47.2969 31.058 47.5037 31.6511 47.5037C32.0466 47.5037 32.4128 47.4088 32.7497 47.2166C33.0866 47.0244 33.3502 46.7641 33.5382 46.4307C33.7262 46.0974 33.8214 45.73 33.8214 45.3236C33.8214 44.9174 33.7262 44.5548 33.5382 44.2288C33.3502 43.9028 33.0842 43.64 32.7424 43.4453C32.4006 43.2482 32.0368 43.151 31.6511 43.151M31.6292 42.657C32.4006 42.657 33.0475 42.9149 33.5675 43.4258C34.0875 43.9417 34.3487 44.5718 34.3487 45.3236C34.3487 46.0755 34.0875 46.6983 33.57 47.2166C33.05 47.7349 32.4177 47.9928 31.6707 47.9928C30.9237 47.9928 30.2768 47.7349 29.7568 47.219C29.2369 46.7032 28.9756 46.0803 28.9756 45.348C28.9756 44.859 29.0928 44.4064 29.3321 43.9904C29.5688 43.5743 29.8911 43.2458 30.3012 43.0098C30.7113 42.7738 31.1532 42.657 31.6292 42.657Z" fill="white"/>
<path d="M39.4893 42.7908H40.0092V44.6983L42.0501 42.7908H42.7336L40.2851 45.0706L42.924 47.8735H42.2454L40.0092 45.5061V47.8735H39.4893V42.7908Z" fill="white"/>
<path d="M47.7998 42.7908H48.3247L49.3647 46.4526L50.8269 42.7908H50.9318L52.3771 46.4526L53.4366 42.7908H53.9565L52.4918 47.8735H52.3966L50.8831 44.0269L49.3402 47.8735H49.245L47.7998 42.7908Z" fill="white"/>
<path d="M60.8035 43.8686L59.9295 45.708H61.6726L60.801 43.8686H60.8035ZM60.8694 42.7883L63.2471 47.8711H62.6954L61.8923 46.1995H59.6952L58.9018 47.8711H58.333L60.7425 42.7883H60.8694Z" fill="white"/>
<path d="M68.977 43.2871V45.0145L69.8559 45.0218C70.1952 45.0218 70.4467 44.9902 70.6102 44.9245C70.7737 44.8613 70.9007 44.7566 70.9935 44.6155C71.0838 44.4745 71.1302 44.3163 71.1302 44.1411C71.1302 43.9659 71.0838 43.8151 70.9911 43.6764C70.8983 43.5377 70.7762 43.4379 70.6273 43.3771C70.4759 43.3163 70.227 43.2871 69.8779 43.2871H68.977ZM68.4668 42.7907H69.4824C70.0488 42.7907 70.432 42.8126 70.6322 42.8588C70.9349 42.927 71.1815 43.0754 71.3719 43.3017C71.5623 43.5304 71.6551 43.8078 71.6551 44.1411C71.6551 44.4185 71.5891 44.6617 71.4598 44.8711C71.3303 45.0803 71.1424 45.2384 70.9007 45.3455C70.659 45.4525 70.3222 45.506 69.8949 45.5085L71.7283 47.8686H71.0985L69.2651 45.5085H68.977V47.8686H68.4668V42.7859V42.7907Z" fill="white"/>
<path d="M77.1543 42.7908H80.0764V43.2871H77.6621V44.8808H80.0545V45.3796H77.6621V47.3748H80.0545V47.8735H77.1543V42.7908Z" fill="white"/>
<path d="M56.3533 29.5257C56.3582 29.4988 56.3606 29.4721 56.363 29.4454C56.5705 27.9733 56.944 26.5305 57.8717 25.3091C58.4576 24.5427 59.2681 24.151 60.0712 24.151C60.8744 24.151 61.6726 24.5427 62.2195 25.3359C62.7224 26.0585 63.0861 26.9125 63.3449 27.7544C63.3815 27.8711 63.4084 27.9928 63.4425 28.1096C64.2798 27.8468 65.061 27.5548 65.7958 27.2337C64.9219 25.2434 63.5915 23.6887 61.3016 23.1898C60.9647 23.1169 60.618 23.0755 60.2739 23.0195H59.8369C56.9416 23.258 55.2401 24.9904 54.1733 27.5062C53.9927 27.9295 53.8364 28.3602 53.7119 28.803C53.6191 29.1388 53.5361 29.4746 53.458 29.8103C54.4809 29.73 55.4427 29.6351 56.3533 29.5281" fill="#E6E7EA"/>
<path d="M23.4481 26.3237C24.3099 25.601 25.2522 25.0512 26.3849 24.9076C28.2841 24.6643 29.7 25.4769 30.6374 27.0536C31.1209 27.876 31.3967 28.7299 31.4992 29.6011C32.3658 29.6983 33.2642 29.7859 34.1967 29.8638C33.4424 27.0877 31.5139 25.2896 28.9531 24.129C27.7959 23.6083 26.5094 23.3797 25.2815 23.0171H24.8396C23.8289 23.1728 22.8574 23.4259 22.0444 24.0877C21.2364 24.7446 21.1876 25.4161 21.8784 26.1923C22.4033 26.7762 22.8476 26.8273 23.4506 26.3212" fill="#E6E7EA"/>
<path d="M39.5553 30.1631C39.7116 28.5111 40.1071 27.1923 40.7808 26.1169C41.6378 24.7519 42.8706 24.0682 44.2938 24.1924C44.4036 24.202 44.5159 24.2142 44.6257 24.2337C46.2663 24.5086 46.9693 25.6863 47.3135 27.1437C47.5478 28.1339 47.6626 29.134 47.5772 30.1193C48.6001 30.0877 49.5716 30.0488 50.5042 30.0025C50.4651 29.5622 50.3968 29.1193 50.2894 28.6716C49.5521 25.6376 47.4429 23.6765 44.45 23.1753C44.2743 23.1436 44.1009 23.1193 43.9203 23.1023C43.8129 23.0877 43.7079 23.0512 43.6029 23.0244H43.0488C41.8721 23.1802 40.7394 23.4575 39.7507 24.1558C37.9003 25.4746 36.9336 27.3262 36.5967 29.5013C36.5698 29.6813 36.5503 29.859 36.5283 30.039C37.5073 30.0974 38.5154 30.1412 39.5553 30.168" fill="#E6E7EA"/>
</g>
<defs>
<clipPath id="clip0_58_256">
<rect width="86" height="48" fill="white"/>
</clipPath>
</defs>
</svg>
