<svg width="86" height="48" viewBox="0 0 86 48" fill="none" xmlns="http://www.w3.org/2000/svg">
<g clip-path="url(#clip0_25_557)">
<path d="M49.286 8.40393C48.0362 8.21171 46.7545 8.04627 45.4484 7.91244C44.1448 7.77862 42.8144 7.67157 41.4669 7.59857C40.1193 7.52559 38.7522 7.48179 37.3705 7.47206C35.9888 7.46232 34.5949 7.48666 33.1912 7.54504C29.2852 7.70806 25.6699 8.13142 22.4573 8.75918C19.2104 9.39424 16.3542 10.2458 14.0204 11.2579C11.6476 12.2872 9.80202 13.4939 8.63999 14.8175C7.45116 16.1704 6.97025 17.6521 7.37305 19.2044C7.55614 19.91 7.91255 20.601 8.43009 21.2676C8.95251 21.9441 9.63845 22.5961 10.4758 23.2214C11.318 23.8541 12.3116 24.455 13.4394 25.0219C14.577 25.5937 15.8489 26.129 17.2404 26.6205C16.9816 26.348 16.7399 26.0706 16.5203 25.7933C16.3029 25.5158 16.1028 25.236 15.927 24.9538C15.7512 24.6716 15.595 24.3894 15.4607 24.1047C15.3289 23.82 15.2166 23.5329 15.1288 23.2458C14.5135 21.2434 15.0091 19.3431 16.3884 17.618C17.7335 15.9368 19.9257 14.4161 22.777 13.1193C25.5698 11.8492 29.0118 10.7884 32.9446 9.99758C36.8286 9.21655 41.2227 8.69344 46.0026 8.49152C46.276 8.47936 46.5495 8.46962 46.8253 8.45989C47.0987 8.45016 47.3722 8.44286 47.6455 8.43556C47.9189 8.42826 48.1923 8.42339 48.4658 8.41852C48.7392 8.41366 49.0126 8.4088 49.286 8.40636" fill="#DAE3AF"/>
<path d="M69.6554 11.0755C68.0076 10.6789 66.2792 10.3359 64.4923 10.0463C62.7151 9.75918 60.8744 9.5256 58.9971 9.35049C57.1247 9.17769 55.2108 9.06095 53.2725 9.01226C51.3391 8.96358 49.3788 8.97575 47.4136 9.05846C45.6535 9.13389 43.9593 9.26289 42.3432 9.438C40.7223 9.61569 39.1745 9.83949 37.7123 10.1096C36.2427 10.3797 34.8536 10.6935 33.5574 11.0487C32.2538 11.4039 31.0429 11.8005 29.9346 12.2337C30.5645 12.1533 31.2041 12.0779 31.851 12.0074C32.4978 11.9392 33.1521 11.876 33.8136 11.8176C34.4752 11.7616 35.1442 11.7105 35.8228 11.6667C36.499 11.6229 37.185 11.5864 37.8808 11.5573C40.3317 11.4526 42.7681 11.4332 45.1677 11.4988C47.5699 11.5621 49.9403 11.7081 52.2569 11.9271C54.581 12.1485 56.8561 12.4454 59.0533 12.8127C61.265 13.1826 63.4035 13.6205 65.4419 14.1266C67.4974 14.6375 69.4552 15.2142 71.2886 15.8517C73.139 16.4964 74.8625 17.2045 76.4297 17.9709C78.014 18.7471 79.4421 19.5816 80.675 20.4721C81.9249 21.3747 82.9795 22.3335 83.7997 23.3456C83.8949 23.4624 83.9853 23.5791 84.0732 23.6984C84.161 23.8152 84.244 23.9319 84.3245 24.0512C84.4051 24.168 84.4808 24.2872 84.5541 24.404C84.6273 24.5208 84.698 24.6424 84.764 24.7592C85.1668 24.2434 85.4646 23.7105 85.655 23.168C85.843 22.6303 85.926 22.0803 85.8967 21.5256C85.8674 20.9757 85.7307 20.4161 85.4793 19.8566C85.2303 19.2993 84.8714 18.7422 84.3978 18.185C83.746 17.4161 82.9062 16.6838 81.9078 15.9903C80.9215 15.3067 79.779 14.6619 78.5072 14.0633C77.2475 13.4697 75.8609 12.9198 74.3718 12.4185C72.8924 11.9223 71.313 11.4721 69.6529 11.0731" fill="#C7D482"/>
<path d="M68.4763 16.2434C68.8107 16.4794 69.1281 16.7179 69.4332 16.9611C69.7384 17.2045 70.0264 17.4551 70.2998 17.7057C70.5733 17.9587 70.8296 18.2166 71.0688 18.477C71.3081 18.7397 71.5302 19.0049 71.7304 19.2775C73.1805 21.2215 73.5296 23.1801 72.8754 25.0585C72.2015 26.9903 70.4732 28.8297 67.8123 30.4721C65.0879 32.1534 61.4066 33.6132 56.9245 34.7373C52.3766 35.8785 47.0499 36.6619 41.1642 36.966C40.8248 36.9831 40.4854 37.0001 40.1462 37.0123C39.8068 37.0269 39.4675 37.039 39.1282 37.0487C38.7888 37.0609 38.4496 37.0683 38.1126 37.0755C37.7758 37.0828 37.4364 37.0877 37.0995 37.0925C38.6253 37.3893 40.2047 37.6449 41.8257 37.8541C43.4516 38.0658 45.1189 38.2312 46.8156 38.3505C48.5146 38.4672 50.2405 38.5378 51.9787 38.5524C53.7168 38.5695 55.4672 38.5329 57.215 38.4429C62.0755 38.1874 66.433 37.5329 70.1241 36.5719C73.7712 35.6254 76.7373 34.3893 78.9002 32.9661C81.0216 31.5694 82.3545 29.9952 82.8012 28.3359C83.2382 26.7154 82.8256 25.0196 81.4806 23.3261C80.8898 22.584 80.1452 21.8736 79.264 21.1971C78.3924 20.5281 77.3891 19.8955 76.2711 19.2993C75.1652 18.7106 73.947 18.1558 72.6361 17.6449C71.3373 17.1363 69.9434 16.6667 68.4763 16.241" fill="#DAE3AF"/>
<path d="M58.4405 31.4575C57.735 31.567 57.0148 31.6667 56.2825 31.7592C55.5502 31.8517 54.8032 31.9368 54.0464 32.0122C53.2871 32.0876 52.5157 32.1558 51.7321 32.2141C50.9485 32.2726 50.1526 32.3237 49.3446 32.3626C46.4884 32.5062 43.6395 32.528 40.837 32.4404C38.0369 32.3528 35.2906 32.1534 32.637 31.8541C29.9932 31.5572 27.4495 31.1606 25.04 30.6813C22.6477 30.202 20.392 29.6375 18.3097 29.0025C16.2444 28.3723 14.3549 27.6716 12.6656 26.9101C10.9958 26.1582 9.52863 25.3504 8.29093 24.4964C7.06789 23.6521 6.07188 22.7641 5.32488 21.8443C4.58764 20.9368 4.09695 19.9976 3.87481 19.0365C3.85039 18.9271 3.82842 18.8176 3.8089 18.7081C3.79181 18.5986 3.77715 18.4915 3.76739 18.3821C3.75519 18.2725 3.75031 18.1655 3.74542 18.0584C3.74054 17.9514 3.74054 17.8443 3.74542 17.7397C3.07165 18.2093 2.48088 18.6984 1.97555 19.2044C1.47022 19.7154 1.05278 20.2434 0.735421 20.7883C0.415624 21.3358 0.195916 21.9003 0.0836208 22.4794C-0.0286744 23.0609 -0.0286744 23.657 0.0885035 24.2629C0.254505 25.1144 0.649979 25.9441 1.25296 26.747C1.86326 27.5572 2.68594 28.3382 3.69904 29.0779C4.72434 29.8249 5.94251 30.5329 7.33154 31.1899C8.73278 31.8541 10.3074 32.4624 12.026 33.0098C13.7592 33.5621 15.6365 34.0487 17.6334 34.4623C19.6401 34.8808 21.7639 35.219 23.9732 35.4769C26.1898 35.7349 28.4894 35.9052 30.8379 35.9806C33.1888 36.056 35.586 36.0366 37.9955 35.9125C40.1462 35.803 42.2114 35.6156 44.1717 35.3553C46.1271 35.0998 47.9775 34.7737 49.7083 34.3845C51.4294 34.0001 53.0284 33.5572 54.4906 33.0633C55.9456 32.5718 57.2639 32.0341 58.4381 31.4526" fill="#C7D482"/>
<path d="M21.7517 21.2724C21.4051 20.9634 21.3025 20.5474 21.4758 20.1678C21.615 19.7883 21.8567 19.4088 22.2375 19.1338C22.5476 18.927 22.9284 18.961 23.275 19.236C24.0709 19.8905 25.1425 20.8224 27.0809 20.8224C29.0192 20.8224 31.5092 18.9611 31.5092 15.1679C31.5092 11.3747 29.2608 10.3406 26.9075 10.3406C25.87 10.3406 24.935 10.6496 24.3467 10.8564L24.1392 10.0632C27.9109 8.54497 30.125 7.23597 30.125 5.02916C30.125 2.99509 28.6725 1.92697 26.8391 1.92697C25.0059 1.92697 23.5533 3.54741 22.8259 4.78827L22.1325 4.23597L23.5508 1.99509C24.5201 0.961029 26.0751 0.201904 27.8742 0.201904C31.0234 0.201904 32.9251 2.02916 32.9251 4.5109C32.9251 5.27003 32.5784 6.06321 31.9217 6.68366C31.4384 7.13134 30.5034 7.71772 29.1193 8.51091V8.57901C32.4393 8.85639 34.3776 11.1995 34.3776 13.7178C34.3776 20.0268 27.5276 22.545 25.0034 22.545C23.6192 22.545 22.4426 21.9246 21.7517 21.27" fill="#0D0D0D"/>
<path d="M47.5234 16.1703C47.5234 13.2384 46.1393 10.3772 42.9585 10.3772C41.6451 10.3772 40.4342 10.7907 39.6042 11.309C39.4309 12.034 39.3967 12.9294 39.3967 14.2044C39.3967 18.343 41.0909 21.5133 43.9276 21.5133C46.7642 21.5133 47.5234 18.6156 47.5234 16.1703ZM49.806 0.861317C48.6977 1.06813 47.316 1.44769 46.0002 2.06812C43.8202 3.10219 40.776 5.44769 39.8093 10.2749L42.0918 9.13629C42.7484 8.82729 43.4394 8.61797 44.2034 8.61797C47.9385 8.61797 50.3943 11.5134 50.3943 14.9611C50.3943 19.0633 47.5577 22.5475 43.2685 22.5475C39.4626 22.5475 36.3843 19.3407 36.3843 13.9635C36.3843 6.309 41.6084 2.44769 45.1701 1.13869C46.4859 0.656934 48.1801 0.243309 49.6327 0L49.806 0.861317Z" fill="#0D0D0D"/>
<path d="M63.9893 11.3771C63.9893 6.58391 63.1593 1.24085 59.9418 1.24085C56.7243 1.24085 55.8602 6.58391 55.8602 11.3771C55.8602 16.1703 56.6902 21.5133 59.9418 21.5133C63.1936 21.5133 63.9893 16.1703 63.9893 11.3771ZM66.9652 11.3771C66.9652 16.4112 65.166 22.5475 59.9418 22.5475C54.7177 22.5475 52.8843 16.4112 52.8843 11.3771C52.8843 6.34304 54.6859 0.206787 59.9443 0.206787C65.2026 0.206787 66.9676 6.34304 66.9676 11.3771" fill="#0D0D0D"/>
<path d="M13.7714 43.7324L13.3686 44.0414C13.1465 43.7543 12.8804 43.5354 12.5704 43.3869C12.2603 43.2386 11.9186 43.1631 11.5451 43.1631C11.1373 43.1631 10.7614 43.2604 10.4148 43.4551C10.0681 43.6497 9.79962 43.9124 9.60921 44.2385C9.41881 44.567 9.32361 44.9368 9.32361 45.3456C9.32361 45.966 9.53594 46.4818 9.96319 46.8979C10.3904 47.3115 10.9274 47.5208 11.5768 47.5208C12.2897 47.5208 12.8877 47.241 13.3686 46.6838L13.7714 46.9879C13.5176 47.3115 13.2002 47.5597 12.8193 47.7349C12.4385 47.9101 12.0138 48.0001 11.5451 48.0001C10.654 48.0001 9.94848 47.7056 9.43343 47.112C9.00136 46.6132 8.78404 46.0074 8.78404 45.3018C8.78404 44.5573 9.04531 43.932 9.57017 43.4234C10.0925 42.9149 10.7492 42.6619 11.5378 42.6619C12.0138 42.6619 12.4434 42.7568 12.8267 42.9441C13.2099 43.1315 13.5249 43.3942 13.769 43.7324" fill="#0D0D0D"/>
<path d="M21.3636 43.1558C20.9876 43.1558 20.6287 43.2531 20.2895 43.4502C19.9501 43.6448 19.6864 43.91 19.4985 44.241C19.3081 44.5742 19.2128 44.9417 19.2128 45.3505C19.2128 45.9538 19.4228 46.4648 19.8427 46.8808C20.2625 47.2969 20.7679 47.5037 21.3611 47.5037C21.7566 47.5037 22.1228 47.4088 22.4597 47.2166C22.7965 47.0244 23.0602 46.7641 23.2482 46.4307C23.4361 46.0974 23.5313 45.73 23.5313 45.3236C23.5313 44.9174 23.4361 44.5548 23.2482 44.2288C23.0602 43.9028 22.7941 43.64 22.4524 43.4453C22.1106 43.2482 21.7468 43.151 21.3611 43.151M21.3392 42.657C22.1106 42.657 22.7575 42.9149 23.2775 43.4258C23.7974 43.9417 24.0562 44.5718 24.0562 45.3236C24.0562 46.0755 23.7974 46.6983 23.2775 47.2166C22.7575 47.7349 22.1252 47.9928 21.3782 47.9928C20.6312 47.9928 19.9843 47.7349 19.4643 47.219C18.9443 46.7032 18.6832 46.0803 18.6832 45.348C18.6832 44.859 18.8003 44.4064 19.0395 43.9904C19.2763 43.5743 19.5985 43.2458 20.0087 43.0098C20.4188 42.7738 20.8607 42.657 21.3367 42.657" fill="#0D0D0D"/>
<path d="M31.6532 43.1558C31.2773 43.1558 30.9185 43.2531 30.5791 43.4502C30.2422 43.6448 29.9762 43.91 29.7882 44.241C29.5978 44.5742 29.5026 44.9417 29.5026 45.3505C29.5026 45.9538 29.7125 46.4648 30.1323 46.8808C30.5523 47.2969 31.0576 47.5037 31.6507 47.5037C32.0463 47.5037 32.4125 47.4088 32.7493 47.2166C33.0862 47.0244 33.3499 46.7641 33.5378 46.4307C33.7258 46.0974 33.821 45.73 33.821 45.3236C33.821 44.9174 33.7258 44.5548 33.5378 44.2288C33.3499 43.9028 33.0838 43.64 32.742 43.4453C32.4002 43.2482 32.0365 43.151 31.6507 43.151M31.6288 42.657C32.4002 42.657 33.0471 42.9149 33.5671 43.4258C34.0871 43.9417 34.3483 44.5718 34.3483 45.3236C34.3483 46.0755 34.0871 46.6983 33.5696 47.2166C33.0496 47.7349 32.4174 47.9928 31.6704 47.9928C30.9233 47.9928 30.2764 47.7349 29.7564 47.219C29.2365 46.7032 28.9752 46.0803 28.9752 45.348C28.9752 44.859 29.0924 44.4064 29.3317 43.9904C29.5684 43.5743 29.8907 43.2458 30.3008 43.0098C30.7109 42.7738 31.1528 42.657 31.6288 42.657Z" fill="#0D0D0D"/>
<path d="M39.4895 42.7908H40.0094V44.6983L42.0503 42.7908H42.7338L40.2853 45.0706L42.9242 47.8735H42.2456L40.0094 45.5061V47.8735H39.4895V42.7908Z" fill="#0D0D0D"/>
<path d="M47.7993 42.7908H48.3242L49.3642 46.4526L50.8264 42.7908H50.9313L52.3766 46.4526L53.4361 42.7908H53.9561L52.4913 47.8735H52.3961L50.8826 44.0269L49.3397 47.8735H49.2445L47.7993 42.7908Z" fill="#0D0D0D"/>
<path d="M60.8036 43.8686L59.9296 45.708H61.6727L60.8011 43.8686H60.8036ZM60.8695 42.7883L63.2472 47.8711H62.6956L61.8924 46.1995H59.6953L58.9019 47.8711H58.3331L60.7426 42.7883H60.8695Z" fill="#0D0D0D"/>
<path d="M68.9767 43.2871V45.0145L69.8556 45.0218C70.1949 45.0218 70.4464 44.9902 70.6099 44.9245C70.7734 44.8613 70.9004 44.7566 70.9932 44.6155C71.0835 44.4745 71.1299 44.3163 71.1299 44.1411C71.1299 43.9659 71.0835 43.8151 70.9908 43.6764C70.898 43.5377 70.7759 43.4379 70.627 43.3771C70.4756 43.3163 70.2267 43.2871 69.8776 43.2871H68.9767ZM68.4665 42.7907H69.4821C70.0485 42.7907 70.4317 42.8126 70.6319 42.8588C70.9346 42.927 71.1812 43.0754 71.3716 43.3017C71.562 43.5304 71.6548 43.8078 71.6548 44.1411C71.6548 44.4185 71.5888 44.6617 71.4595 44.8711C71.33 45.0803 71.1421 45.2384 70.9004 45.3455C70.6587 45.4525 70.3219 45.506 69.8946 45.5085L71.728 47.8686H71.0982L69.2648 45.5085H68.9767V47.8686H68.4665V42.7859V42.7907Z" fill="#0D0D0D"/>
<path d="M77.1547 42.7908H80.0768V43.2871H77.6626V44.8808H80.0549V45.3796H77.6626V47.3748H80.0549V47.8735H77.1547V42.7908Z" fill="#0D0D0D"/>
<path d="M56.3533 29.5257C56.3582 29.4988 56.3606 29.4721 56.363 29.4454C56.5705 27.9733 56.9441 26.5305 57.8717 25.3091C58.4576 24.5427 59.2681 24.151 60.0713 24.151C60.8744 24.151 61.6727 24.5427 62.2195 25.3359C62.7224 26.0585 63.0862 26.9125 63.3449 27.7544C63.3815 27.8711 63.4084 27.9928 63.4426 28.1096C64.2798 27.8468 65.0611 27.5548 65.7959 27.2337C64.9219 25.2434 63.5915 23.6887 61.3016 23.1898C60.9647 23.1169 60.6181 23.0755 60.2739 23.0195H59.8369C56.9416 23.258 55.2401 24.9904 54.1733 27.5062C53.9927 27.9295 53.8364 28.3602 53.7119 28.803C53.6191 29.1388 53.5361 29.4746 53.458 29.8103C54.4809 29.73 55.4427 29.6351 56.3533 29.5281" fill="#E6E7EA"/>
<path d="M23.4483 26.3237C24.3101 25.601 25.2524 25.0512 26.3851 24.9076C28.2844 24.6643 29.7003 25.4769 30.6377 27.0536C31.1211 27.876 31.3969 28.7299 31.4994 29.6011C32.366 29.6983 33.2645 29.7859 34.197 29.8638C33.4426 27.0877 31.5141 25.2896 28.9533 24.129C27.7961 23.6083 26.5096 23.3797 25.2817 23.0171H24.8398C23.8291 23.1728 22.8576 23.4259 22.0446 24.0877C21.2367 24.7446 21.1878 25.4161 21.8787 26.1923C22.4035 26.7762 22.8478 26.8273 23.4508 26.3212" fill="#E6E7EA"/>
<path d="M39.5554 30.1631C39.7116 28.5111 40.1071 27.1923 40.7809 26.1169C41.6378 24.7519 42.8706 24.0682 44.2938 24.1924C44.4036 24.202 44.5159 24.2142 44.6258 24.2337C46.2663 24.5086 46.9693 25.6863 47.3135 27.1437C47.5479 28.1339 47.6626 29.134 47.5772 30.1193C48.6001 30.0877 49.5716 30.0488 50.5042 30.0025C50.4652 29.5622 50.3968 29.1193 50.2894 28.6716C49.5521 25.6376 47.4429 23.6765 44.45 23.1753C44.2743 23.1436 44.1009 23.1193 43.9203 23.1023C43.8129 23.0877 43.7079 23.0512 43.6029 23.0244H43.0488C41.8721 23.1802 40.7394 23.4575 39.7507 24.1558C37.9003 25.4746 36.9336 27.3262 36.5967 29.5013C36.5698 29.6813 36.5503 29.859 36.5283 30.039C37.5073 30.0974 38.5155 30.1412 39.5554 30.168" fill="#E6E7EA"/>
</g>
<defs>
<clipPath id="clip0_25_557">
<rect width="86" height="48" fill="white"/>
</clipPath>
</defs>
</svg>
