<?xml version="1.0" encoding="utf-8"?>
<!-- Generator: Adobe Illustrator 25.2.0, SVG Export Plug-In . SVG Version: 6.00 Build 0)  -->
<svg version="1.1" id="Layer_2" xmlns="http://www.w3.org/2000/svg" xmlns:xlink="http://www.w3.org/1999/xlink" x="0px" y="0px"
	 viewBox="0 0 968.4 303.3" style="enable-background:new 0 0 968.4 303.3;" xml:space="preserve">
<style type="text/css">
	.st0{fill:#00A9E0;}
	.st1{fill:#A4D65E;}
	.st2{fill:#004B87;}
</style>
<g>
	<g>
		<g>
			<g>
				<path class="st0" d="M125.4,178.8v39h53l-14.6-57.1h-20.3C133.5,160.7,125.4,168.8,125.4,178.8z"/>
				<path class="st1" d="M80.9,160.7H24.6L10,217.8H99v-39C99,168.8,90.9,160.7,80.9,160.7z"/>
			</g>
			<path class="st0" d="M124.1,6H64.3L27.6,149h133.1L124.1,6z M112.4,134.3c-12,0-21.8-9.7-21.8-21.8s9.7-21.8,21.8-21.8
				c12,0,21.8,9.7,21.8,21.8S124.4,134.3,112.4,134.3z"/>
		</g>
		<path class="st0" d="M194.3,6.1h68.9c52.7,0,67.9,24.5,67.9,58c0,15.2-6,42.4-33.1,44.7c26.8,2.6,38.1,24.8,38.1,44.4
			c0,34.4-12.6,64.9-72.9,64.9h-68.9V6.1z M262.2,88.2c10.9,0,14.9-5.6,14.9-17.9c0-12.9-3.6-16.9-13.9-16.9h-14.6v34.8H262.2z
			 M263.9,172c11.6,0,16.6-5.6,16.6-19.9c0-14.9-5-19.9-15.9-19.9h-15.9V172H263.9z"/>
		<path class="st0" d="M405.3,66.4c0-12.3,7.6-17.6,17.2-17.6c11.6,0,18.5,5.3,18.5,24.5h53.3c-1-41.1-19.2-70.5-72.2-70.5
			c-57,0-70.9,35.1-70.9,61.9c0,79.1,91.4,56.3,91.4,91.1c0,11.6-7.3,19.5-18.5,19.5c-13.4,0-19.4-8.3-19.8-26.3h-55.6
			c0.6,48.5,23,72.3,77.1,72.3c56.3,0,70.2-41.4,70.2-69.5C496,82.3,405.3,98.8,405.3,66.4z"/>
	</g>
	<g>
		<path class="st1" d="M670.1,203.4c-3.6-3.7-35.5-41.9-53.5-63.5c5.2-8.3,9.5-16.2,9.5-16.2c12.6-20,25.4-42,41.7-67.1
			c1.3-3.1,2.5-5.4,2.5-7.6c0-2.7-1.3-4.9-5.2-7.6c-5.8-4-11.2-7.2-16.8-9.9c-2.9-1.3-5.4-2.2-7-2.2c-3.1,0-5.2,2-7,4.9
			c-15.9,28.3-28.9,58.4-48.5,90.6l-5.4,0.4c-0.7-15.2-0.9-30.5-0.9-45.5c0-7.6,0.2-20,0.2-22.4c0-9.4-1.8-11.2-8.5-11.7
			c-2-0.2-4.3-0.2-6.5-0.2c-6.1,0-12.6,0.2-18.2,1.1c-7.2,1.1-9.4,4.3-9.4,11.9c-0.2,9.9-0.4,19.7-0.4,29.2
			c0,14.6,0.4,28.5,0.9,42.4l-3.6,0.4c-7,0.9-9.6,4.9-9.6,14.1c0,4.3,0.2,8.5,0.9,12.6c1.1,6.5,4,8.3,8.1,8.3c0.9,0,1.8,0,2.9-0.2
			l3.8-0.7c0.9,10.8,2,31.7,3.6,42.3c0.9,6.3,5.2,9.9,11.7,9.9c7,0,14.6-0.7,20.9-2.2c5.8-1.6,8.3-6.1,8.3-11.4c0-0.4,0-11.1-2-43.4
			c0.8,0,1.6-0.1,2.3-0.1c11.4,15.8,31.4,43.7,36.2,49.7c6.8,8.5,12.3,9.3,19.5,8.6c10.8-1,20.7-1.8,26.9-2.6
			C673.9,214.2,677.7,211.1,670.1,203.4z"/>
		<path class="st1" d="M725.4,81.9c0,11.4-4.3,20-23.1,20c-16.6,0-22.2-4.9-22.2-22c0-14.4,6.1-21.3,22.2-21.3
			C718.9,58.5,725.4,62.4,725.4,81.9z M690.9,113.5c4.9-1.1,11.9-1.6,18.2-1.6c2.7,0,5.2,0,7.4,0.2c4.5,0.2,4.9,1.8,4.9,9
			c0,32.1-0.4,53.2-2.7,83.2c-0.7,9.2-0.9,12.3-12.1,12.3c-4,0-8.3-0.2-12.3-0.7c-9.2-0.9-10.8-4.5-11.2-11.9
			c-0.7-10.8-0.9-21.3-0.9-31.8c0-16.8,0.7-28.5,1.8-46C684.1,119.3,684.8,114.4,690.9,113.5z"/>
		<path class="st1" d="M814.2,206.4c-9.9,8.1-21.1,12.3-32.7,12.3c-29.4,0-47.5-22.4-47.5-51.3c0-37.2,29.8-62.6,62.8-62.6
			c7,0,14.6,0.9,21.5,4.3c0.4-16.4,0.7-40.8,0.7-49.7c0-10.5,1.8-12.1,9.2-12.6c2-0.2,4.3-0.2,6.5-0.2c4.3,0,9,0.2,12.3,0.7
			c7.4,0.9,10.5,2.2,10.5,12.8c0,26.5-1.3,101.1-6.1,144.6c-0.9,8.7-3.6,11.9-11.4,12.8c-2.7,0.4-6.1,0.4-9.4,0.4
			c-2.7,0-5.4,0-7.4-0.2C814.6,216.5,814.2,213.3,814.2,206.4z M817.3,138.6c-4.3-1.6-8.7-2.9-14.8-2.9c-18.2,0-28.9,15.5-28.9,28.3
			s5.8,21.1,19.3,21.1c7.4,0,15.7-3.8,23.1-11L817.3,138.6z"/>
		<path class="st1" d="M908.3,218.7c-12.6,0-22.2-1.6-31.2-5.2c-4-1.6-6.1-3.6-6.1-7.4c0-1.3,0.2-2.9,0.7-4.7
			c1.1-4.3,3.8-9.6,5.4-13.5c1.6-3.1,2.7-4.7,4.7-4.7c1.3,0,3.1,0.7,5.8,1.8c5.6,2.7,12.3,3.8,16.8,3.8c6.7,0,11.4-1.3,11.4-5.4
			c0-10.1-46.6-11.2-46.6-45.1c0-21.5,25.1-35.7,50.7-35.7c10.8,0,22.6,2,31.8,5.2c4.7,1.6,7.4,4.3,7.4,10.3
			c0,6.3-1.6,15.5-3.1,21.1c-1.3,4.5-2.9,7.2-9,7.2c-4.7,0-9-0.4-13.5-1.3c-5.8-1.1-7-2.7-7-9.4v-1.6c-2.7-0.7-5.2-1.1-7.2-1.1
			c-7.8,0-13.7,1.8-13.7,7c0,10.1,52,10.8,52,45.5C957.9,205.7,936.6,218.7,908.3,218.7z"/>
	</g>
	<g>
		<path class="st2" d="M12.2,257.1c5-1,10-1.4,15.4-1.4c4.6,0,12,0.9,12,6c0,1.5-1.4,5.1-4.7,7.8c-1.2,1-2.1,1.7-3.1,2.4
			c1.1,0,2.1-0.1,3.2-0.1c4.3,0,6.2,1.7,6.2,5.5c0,2.7-0.6,6.7-1.6,10.4c-0.4,1.5-1.1,2-2.3,2.1c-1.3,0.2-2.8,0.3-4.2,0.3
			c-1.1,0-1.8-0.7-1.8-1.8c0-0.6,0.9-5.8,0.9-9.7c-1.2-0.1-2.5-0.1-3.8-0.1c-1.7,0-3.5,0.1-5.3,0.2c0.1,2.4,0.5,6.5,0.5,7.6
			c0,1.1-0.5,1.9-1.7,2.2c-1.4,0.3-3,0.5-4.5,0.5c-1.3,0-2-0.5-2.2-2c-1.1-8.5-1.4-14.1-1.4-21.8l-0.6,0.1c-0.5,0.1-0.8,0.2-1.2,0.2
			c-0.8,0-1.3-0.4-1.5-1.5c-0.2-1-0.4-2-0.4-3.1c0-0.5,0-1.1,0.1-1.6C10.2,258,10.7,257.4,12.2,257.1z M22.5,271.5
			c2.9-1.9,6.1-5.5,7.7-8.2c-0.5,0-1,0-1.5,0c-1.8,0-4.1,0.2-6.6,0.5C22.2,266.4,22.4,269,22.5,271.5z"/>
		<path class="st2" d="M53.7,280.2c1.3,1.4,3.3,2.3,5.5,2.3c1.6,0,4-0.5,5.8-1.3c0.4-0.2,0.7-0.3,1-0.3c0.5,0,0.7,0.4,0.9,1
			c0.2,0.6,0.4,1.3,0.5,2c0.1,0.4,0.1,0.6,0.1,0.9c0,0.6-0.2,1.1-0.7,1.6c-1.9,1.8-5.4,3-9.6,3c-6.1,0-11.6-4.6-11.6-11.6
			c0-7.1,5.8-12.1,12.1-12.1c8.6,0,11.4,7.1,11.4,10.5c0,0.7-0.2,1.4-1.2,1.8C64.8,279.1,58.7,279.9,53.7,280.2z M52.9,275.5
			c2.8-0.1,6.1-0.3,8.7-0.9c-0.7-1.8-2.3-2.5-3.8-2.5C55.6,272.1,53.6,273.5,52.9,275.5z"/>
		<path class="st2" d="M88.5,286.9c-2,1.6-4.4,2.5-7.1,2.5c-5.9,0-9.6-4.1-9.6-9.6c0-7.9,6.6-14.1,13.2-14.1c1.3,0,2.8,0.3,4.1,0.8
			c0.1-1.2,0.5-1.5,1.3-1.5c1,0,3,0.3,4.5,0.7c1.5,0.4,2.2,0.8,2.2,3c0,5.5-0.3,12-1,17.7c-0.2,1.8-0.7,2.5-2.4,2.6
			c-0.6,0.1-1.3,0.1-1.9,0.1c-0.6,0-1.1,0-1.5,0C88.7,288.9,88.5,288.2,88.5,286.9z M89.2,273c-0.9-0.4-1.9-0.6-3.1-0.6
			c-3.8,0-5.8,3.7-5.8,6.2c0,2.3,1.4,3.8,4,3.8c1.5,0,3.1-0.6,4.5-2C89,277.9,89.2,275.4,89.2,273z"/>
		<path class="st2" d="M120.5,266.4c1.4,0.6,1.9,1.1,2.1,2.8c0.1,1,0.2,1.9,0.2,2.7c0,1.1-0.1,2.2-0.3,3.2c-0.2,1.3-0.6,1.7-1.9,1.7
			c-0.9,0-1.7,0-2.5-0.2c-1.1-0.2-1.9-0.9-2.1-2.2c-0.1-0.9-0.2-1.9-0.2-2.8c-3.4,0.3-6.2,2.5-6.2,5.6c0,2.9,2,5.4,5.4,5.4
			c1.6,0,4-0.9,5.1-1.5c0.6-0.3,1.1-0.6,1.5-0.6c0.4,0,0.7,0.2,1.1,0.9c0.4,0.7,0.8,1.4,1.1,2.2c0.2,0.6,0.3,1,0.3,1.4
			c0,0.5-0.2,0.8-0.7,1.3c-1.8,1.6-5.4,2.7-8.6,2.7c-11.7,0-13.1-8.2-13.1-11.5c0-7,7-12.1,14.2-12.1
			C117.4,265.7,118.9,265.8,120.5,266.4z"/>
		<path class="st2" d="M130.4,256.1c1.4-0.4,4.2-0.6,5.8-0.6c1,0,1.1,0.5,1.1,1.3c0,1.2-0.2,6.8-0.3,11.1c2.2-1.6,4.9-2.4,7.6-2.4
			c2.6,0,7.2,0.7,7.2,6.6c0,3.3-0.3,9.2-1.1,14.7c-0.1,1.1-0.4,2.1-2,2.1c-0.8,0-2.6-0.2-4-0.5c-1.1-0.2-1.5-0.9-1.5-2
			c0-0.7,0.5-4.8,0.5-11.4c0-1.5-0.6-2.5-1.8-2.5c-1.5,0-3.2,0.6-5,1.7c0,4.7,0.2,9.1,0.5,11.9c0,0.4,0.1,0.7,0.1,1
			c0,1.1-0.5,1.6-2.5,1.7c-0.4,0-1,0-1.5,0c-0.6,0-1.1,0-1.5,0c-1.9-0.1-2.3-0.8-2.5-2.3c-0.4-3.8-0.8-10.8-0.8-17.8
			c0-3.4,0.2-6.8,0.3-9.9C129.1,257.4,129.2,256.4,130.4,256.1z"/>
		<path class="st2" d="M165.8,260c0,2.4-0.9,4.1-4.8,4.1c-3.4,0-4.6-1-4.6-4.5c0-3,1.3-4.4,4.6-4.4C164.4,255.2,165.8,256,165.8,260
			z M158.6,266.5c1-0.2,2.5-0.3,3.8-0.3c0.6,0,1.1,0,1.5,0c0.9,0,1,0.4,1,1.9c0,6.6-0.1,12.1-0.6,18.3c-0.1,1.9-0.2,2.6-2.5,2.6
			c-0.8,0-1.7,0-2.6-0.1c-1.9-0.2-2.2-0.9-2.3-2.5c-0.1-2.2-0.2-4.4-0.2-6.6c0-3.5,0.1-7,0.4-10.6
			C157.2,267.7,157.4,266.7,158.6,266.5z"/>
		<path class="st2" d="M172.1,266.1c1.4-0.4,4.2-0.6,5.8-0.6c0.9,0,1.2,0.5,1.2,1.2c0,0.4,0,0.8-0.1,1.3c2.3-1.6,4.9-2.4,7.6-2.4
			c2.6,0,7.2,0.7,7.2,6.6c0,3.3-0.3,9.2-1.1,14.7c-0.1,1.1-0.4,2.1-2,2.1c-0.9,0-2.6-0.2-4-0.5c-1.1-0.2-1.5-0.9-1.5-2
			c0-1.3,0.5-3.8,0.5-11.4c0-1.5-0.6-2.5-1.8-2.5c-1.5,0-3.3,0.6-5.1,1.8c0,4,0.2,7.9,0.6,11.8c0,0.4,0.1,0.7,0.1,1
			c0,1.1-0.5,1.6-2.5,1.7c-0.4,0-1,0-1.5,0c-0.6,0-1.1,0-1.5,0c-1.9-0.1-2.3-0.8-2.5-2.3c-0.5-4.7-0.8-9.6-0.8-14.4
			c0-1.1,0-2.2,0-3.3C170.9,267.4,170.9,266.4,172.1,266.1z"/>
		<path class="st2" d="M213.8,300c-4.4,0-7.6-0.7-11.3-2.4c-0.9-0.4-1.5-1-1.5-1.9c0-0.8,0.7-2.6,1.3-3.9c0.4-0.7,0.7-1,1.3-1
			c0.3,0,0.7,0.1,1.2,0.3c3.1,1.1,5.5,1.3,8.7,1.3c0.3-1.9,0.6-4.1,0.7-6.4c-2,1.6-4.4,2.4-7,2.4c-5.9,0-9.5-4.1-9.5-9.3
			c0-7.6,6.6-13.5,13.3-13.5c1.2,0,2.2,0.1,3.4,0.5c0.1-0.9,0.4-1.2,1.2-1.2c0.8,0,3,0.3,4.6,0.7c1.5,0.4,2.2,0.8,2.3,3
			c0.1,1.7,0.2,4.1,0.2,7c0,6.4-0.4,14.5-1.2,19.2C220.7,297.7,217.9,300,213.8,300z M214.5,274.6v-2c-0.7-0.3-1.6-0.5-2.7-0.5
			c-3.8,0-5.8,3.6-5.8,5.9c0,2.2,1.5,3.7,4,3.7c1.5,0,3-0.6,4.5-1.9C214.5,278,214.5,276.2,214.5,274.6z"/>
		<path class="st2" d="M269.7,268.5c-1.1,5.8-2.6,11.7-4.6,17.5c-0.5,1.3-1,2-2.4,2.3c-1.1,0.2-2.2,0.4-3.3,0.4
			c-1.9,0-2.9-0.7-3.5-2.3c-2.1-5.8-3.5-11.8-5.1-17.9c-1.3,5.5-2.2,11.4-3.1,18.3c-0.2,1.6-0.5,2.4-2.5,2.4c-1.7,0-3.1-0.2-4.4-0.4
			c-1.3-0.2-1.8-0.8-1.8-2c0-0.3,0-0.6,0.1-1c1.4-9.2,3.9-18.2,7-27.8c0.5-1.4,1-1.9,2.6-2.2c1.1-0.1,2-0.2,2.9-0.2
			c0.5,0,0.9,0,1.3,0c1.3,0.1,2.1,0.7,2.8,2.3c2.1,4.9,3.5,10,5,15.4c1.2-5.1,2.4-10.3,4.5-15.4c0.5-1.2,1.3-1.9,2.9-2.1
			c1-0.1,2-0.2,2.9-0.2c0.5,0,0.9,0,1.3,0c1.6,0.2,2.3,0.9,2.9,2.6c3.3,8.8,5.7,18.2,7.1,27.9c0,0.2,0,0.5,0,0.7
			c0,1-0.4,1.6-1.3,1.9c-1.4,0.4-3,0.6-4.6,0.6c-1.6,0-2.7-0.1-3-1.8C272.5,281.2,271.3,274.9,269.7,268.5z"/>
		<path class="st2" d="M295.7,260c0,2.4-0.9,4.1-4.8,4.1c-3.4,0-4.6-1-4.6-4.5c0-3,1.3-4.4,4.6-4.4C294.4,255.2,295.7,256,295.7,260
			z M288.6,266.5c1-0.2,2.5-0.3,3.8-0.3c0.6,0,1.1,0,1.5,0c0.9,0,1,0.4,1,1.9c0,6.6-0.1,12.1-0.6,18.3c-0.1,1.9-0.2,2.6-2.5,2.6
			c-0.8,0-1.7,0-2.6-0.1c-1.9-0.2-2.2-0.9-2.3-2.5c-0.1-2.2-0.2-4.4-0.2-6.6c0-3.5,0.1-7,0.4-10.6
			C287.2,267.7,287.3,266.7,288.6,266.5z"/>
		<path class="st2" d="M302.8,256.1c1.4-0.4,3.5-0.6,4.8-0.6c0.9,0,1.3,0.4,1.3,1.8c0,1.4,0,2.9,0,4.5c0,8.5-0.3,18.9-0.8,24.3
			c-0.1,1.7-0.2,2.5-2.2,2.7c-0.4,0-0.7,0-1.1,0c-0.5,0-1,0-1.4,0c-1.9-0.1-2.3-0.8-2.4-2.3c-0.2-2.7-0.4-7-0.4-11.7
			c0-5.2,0.2-11,0.7-16C301.6,256.8,301.8,256.3,302.8,256.1z"/>
		<path class="st2" d="M321.7,280.2c1.3,1.4,3.3,2.3,5.5,2.3c1.6,0,4-0.5,5.8-1.3c0.4-0.2,0.7-0.3,1-0.3c0.5,0,0.7,0.4,0.9,1
			c0.2,0.6,0.4,1.3,0.5,2c0.1,0.4,0.1,0.6,0.1,0.9c0,0.6-0.2,1.1-0.7,1.6c-1.9,1.8-5.4,3-9.6,3c-6.1,0-11.6-4.6-11.6-11.6
			c0-7.1,5.8-12.1,12.1-12.1c8.6,0,11.4,7.1,11.4,10.5c0,0.7-0.2,1.4-1.2,1.8C332.8,279.1,326.7,279.9,321.7,280.2z M320.8,275.5
			c2.8-0.1,6.1-0.3,8.7-0.9c-0.7-1.8-2.3-2.5-3.8-2.5C323.6,272.1,321.5,273.5,320.8,275.5z"/>
		<path class="st2" d="M347.9,289.4c-2.6,0-4.6-0.3-6.4-1.1c-0.8-0.3-1.3-0.7-1.3-1.5c0-0.3,0-0.6,0.1-1c0.2-0.9,0.8-2,1.1-2.8
			c0.3-0.6,0.6-1,1-1c0.3,0,0.6,0.1,1.2,0.4c1.2,0.6,2.6,0.8,3.5,0.8c1.4,0,2.4-0.3,2.4-1.1c0-2.1-9.6-2.3-9.6-9.3
			c0-4.5,5.2-7.4,10.5-7.4c2.2,0,4.7,0.4,6.6,1.1c1,0.3,1.5,0.9,1.5,2.1c0,1.3-0.3,3.2-0.6,4.4c-0.3,0.9-0.6,1.5-1.9,1.5
			c-1,0-1.9-0.1-2.8-0.3c-1.2-0.2-1.4-0.6-1.4-1.9v-0.3c-0.6-0.1-1.1-0.2-1.5-0.2c-1.6,0-2.8,0.4-2.8,1.4c0,2.1,10.8,2.2,10.8,9.4
			C358.1,286.7,353.7,289.4,347.9,289.4z"/>
		<path class="st2" d="M364.1,267.6v-1.3c0-1.2,0-2.3,0.1-3.7c0.1-2.3,0.7-3.2,6.4-3.2c1.4,0,1.9,0.7,1.9,2.1c0,0.6-0.2,3.8-0.3,6
			c1.1,0.1,2.1,0.2,3.2,0.4c1.3,0.2,1.7,0.7,1.7,1.9c0,0.6-0.1,1.8-0.2,2.6c-0.2,1.2-0.8,1.6-2.1,1.7c-0.8,0.1-2,0.2-2.5,0.2
			c0.1,4.1,0.6,11.4,0.6,12.7c0,1.1-0.4,1.6-1.7,1.8c-1.2,0.2-2.4,0.3-3.5,0.3c-1.2,0-1.7-0.4-1.9-1.9c-0.6-4.4-1-8.6-1.3-13.1
			l-1.2-0.1c-1.3-0.1-1.8-0.5-1.9-1.9c0-0.6-0.1-1.4-0.1-1.9C361.1,268.1,361.7,267.8,364.1,267.6z"/>
		<path class="st2" d="M397.7,267.5c0,0.2,0,0.4-0.1,1.1c4.8,1.2,7.7,4.9,7.7,10c0,7.1-6.4,11-12.3,11c-8.1,0-13.2-4-13.2-11.5
			c0-7.6,6.7-12.6,13.1-12.6c1,0,2.4,0.2,3.5,0.5C397.2,266.3,397.7,266.5,397.7,267.5z M393.1,272.4c-3.2,0.3-5.5,2.7-5.5,6
			c0,2.7,2.3,4.3,5,4.3c2.6,0,5.3-1.6,5.3-4.3c0-1.8-1.2-2.9-2.9-3.4C393.6,274.5,393.1,274.2,393.1,272.4z"/>
		<path class="st2" d="M411.2,266.1c1.4-0.4,4.2-0.6,5.8-0.6c0.9,0,1.2,0.5,1.2,1.2c0,0.4,0,0.8-0.1,1.3c2.3-1.6,4.9-2.4,7.6-2.4
			c2.6,0,7.2,0.7,7.2,6.6c0,3.3-0.3,9.2-1.1,14.7c-0.1,1.1-0.4,2.1-2,2.1c-0.9,0-2.6-0.2-4-0.5c-1.1-0.2-1.5-0.9-1.5-2
			c0-1.3,0.5-3.8,0.5-11.4c0-1.5-0.6-2.5-1.8-2.5c-1.5,0-3.3,0.6-5.1,1.8c0,4,0.2,7.9,0.6,11.8c0,0.4,0.1,0.7,0.1,1
			c0,1.1-0.5,1.6-2.5,1.7c-0.4,0-1,0-1.5,0c-0.6,0-1.1,0-1.5,0c-1.9-0.1-2.3-0.8-2.5-2.3c-0.5-4.7-0.8-9.6-0.8-14.4
			c0-1.1,0-2.2,0-3.3C410,267.4,410,266.4,411.2,266.1z"/>
		<path class="st2" d="M444.8,280.2c1.3,1.4,3.3,2.3,5.5,2.3c1.6,0,4-0.5,5.8-1.3c0.4-0.2,0.7-0.3,1-0.3c0.5,0,0.7,0.4,0.9,1
			c0.2,0.6,0.4,1.3,0.5,2c0.1,0.4,0.1,0.6,0.1,0.9c0,0.6-0.2,1.1-0.7,1.6c-1.9,1.8-5.4,3-9.6,3c-6.1,0-11.6-4.6-11.6-11.6
			c0-7.1,5.8-12.1,12.1-12.1c8.6,0,11.4,7.1,11.4,10.5c0,0.7-0.2,1.4-1.2,1.8C455.9,279.1,449.8,279.9,444.8,280.2z M444,275.5
			c2.8-0.1,6.1-0.3,8.7-0.9c-0.7-1.8-2.3-2.5-3.8-2.5C446.7,272.1,444.7,273.5,444,275.5z"/>
		<path class="st2" d="M471,289.4c-2.6,0-4.6-0.3-6.4-1.1c-0.8-0.3-1.3-0.7-1.3-1.5c0-0.3,0-0.6,0.1-1c0.2-0.9,0.8-2,1.1-2.8
			c0.3-0.6,0.6-1,1-1c0.3,0,0.6,0.1,1.2,0.4c1.2,0.6,2.6,0.8,3.5,0.8c1.4,0,2.4-0.3,2.4-1.1c0-2.1-9.6-2.3-9.6-9.3
			c0-4.5,5.2-7.4,10.5-7.4c2.2,0,4.7,0.4,6.6,1.1c1,0.3,1.5,0.9,1.5,2.1c0,1.3-0.3,3.2-0.6,4.4c-0.3,0.9-0.6,1.5-1.9,1.5
			c-1,0-1.9-0.1-2.8-0.3c-1.2-0.2-1.4-0.6-1.4-1.9v-0.3c-0.6-0.1-1.1-0.2-1.5-0.2c-1.6,0-2.8,0.4-2.8,1.4c0,2.1,10.8,2.2,10.8,9.4
			C481.3,286.7,476.8,289.4,471,289.4z"/>
		<path class="st2" d="M496.8,284.5c0,2.6-1,4.5-5.3,4.5c-3.8,0-5.1-1.1-5.1-5c0-3.3,1.4-4.9,5.1-4.9
			C495.3,279.2,496.8,280,496.8,284.5z"/>
		<path class="st2" d="M515.5,257.1c5-1,10-1.4,15.4-1.4c4.6,0,12,0.9,12,6c0,1.5-1.4,5.1-4.7,7.8c-1.2,1-2.1,1.7-3.1,2.4
			c1.1,0,2.1-0.1,3.2-0.1c4.3,0,6.2,1.7,6.2,5.5c0,2.7-0.6,6.7-1.6,10.4c-0.4,1.5-1.1,2-2.3,2.1c-1.3,0.2-2.8,0.3-4.2,0.3
			c-1.1,0-1.8-0.7-1.8-1.8c0-0.6,0.9-5.8,0.9-9.7c-1.2-0.1-2.5-0.1-3.8-0.1c-1.7,0-3.5,0.1-5.3,0.2c0.1,2.4,0.5,6.5,0.5,7.6
			c0,1.1-0.5,1.9-1.7,2.2c-1.4,0.3-3,0.5-4.5,0.5c-1.3,0-2-0.5-2.2-2c-1.1-8.5-1.4-14.1-1.4-21.8l-0.6,0.1c-0.5,0.1-0.8,0.2-1.2,0.2
			c-0.8,0-1.3-0.4-1.5-1.5c-0.2-1-0.4-2-0.4-3.1c0-0.5,0-1.1,0.1-1.6C513.5,258,514,257.4,515.5,257.1z M525.8,271.5
			c2.9-1.9,6.1-5.5,7.7-8.2c-0.5,0-1,0-1.5,0c-1.8,0-4.1,0.2-6.6,0.5C525.5,266.4,525.6,269,525.8,271.5z"/>
		<path class="st2" d="M557,280.2c1.3,1.4,3.3,2.3,5.5,2.3c1.6,0,4-0.5,5.8-1.3c0.4-0.2,0.7-0.3,1-0.3c0.5,0,0.7,0.4,0.9,1
			c0.2,0.6,0.4,1.3,0.5,2c0.1,0.4,0.1,0.6,0.1,0.9c0,0.6-0.2,1.1-0.7,1.6c-1.9,1.8-5.4,3-9.6,3c-6.1,0-11.6-4.6-11.6-11.6
			c0-7.1,5.8-12.1,12.1-12.1c8.6,0,11.4,7.1,11.4,10.5c0,0.7-0.2,1.4-1.2,1.8C568.1,279.1,562,279.9,557,280.2z M556.1,275.5
			c2.8-0.1,6.1-0.3,8.7-0.9c-0.7-1.8-2.3-2.5-3.8-2.5C558.9,272.1,556.8,273.5,556.1,275.5z"/>
		<path class="st2" d="M591.8,286.9c-2,1.6-4.4,2.5-7.1,2.5c-5.9,0-9.6-4.1-9.6-9.6c0-7.9,6.6-14.1,13.2-14.1c1.3,0,2.8,0.3,4.1,0.8
			c0.1-1.2,0.5-1.5,1.3-1.5c1,0,3,0.3,4.5,0.7c1.5,0.4,2.2,0.8,2.2,3c0,5.5-0.3,12-1,17.7c-0.2,1.8-0.7,2.5-2.4,2.6
			c-0.6,0.1-1.3,0.1-1.9,0.1c-0.6,0-1.1,0-1.5,0C591.9,288.9,591.8,288.2,591.8,286.9z M592.5,273c-0.9-0.4-1.9-0.6-3.1-0.6
			c-3.8,0-5.8,3.7-5.8,6.2c0,2.3,1.4,3.8,4,3.8c1.5,0,3.1-0.6,4.5-2C592.3,277.9,592.5,275.4,592.5,273z"/>
		<path class="st2" d="M608.1,256.1c1.4-0.4,3.5-0.6,4.8-0.6c0.9,0,1.3,0.4,1.3,1.8c0,1.4,0,2.9,0,4.5c0,8.5-0.3,18.9-0.8,24.3
			c-0.1,1.7-0.2,2.5-2.2,2.7c-0.4,0-0.7,0-1.1,0c-0.5,0-1,0-1.4,0c-1.9-0.1-2.3-0.8-2.4-2.3c-0.2-2.7-0.4-7-0.4-11.7
			c0-5.2,0.2-11,0.7-16C606.9,256.8,607.1,256.3,608.1,256.1z"/>
		<path class="st2" d="M629.1,260c0,2.4-0.9,4.1-4.8,4.1c-3.4,0-4.6-1-4.6-4.5c0-3,1.3-4.4,4.6-4.4C627.7,255.2,629.1,256,629.1,260
			z M621.9,266.5c1-0.2,2.5-0.3,3.8-0.3c0.6,0,1.1,0,1.5,0c0.9,0,1,0.4,1,1.9c0,6.6-0.1,12.1-0.6,18.3c-0.1,1.9-0.2,2.6-2.5,2.6
			c-0.8,0-1.7,0-2.6-0.1c-1.9-0.2-2.2-0.9-2.3-2.5c-0.1-2.2-0.2-4.4-0.2-6.6c0-3.5,0.1-7,0.4-10.6
			C620.5,267.7,620.7,266.7,621.9,266.5z"/>
		<path class="st2" d="M634.8,287.9c-0.6-1.3-1.1-2.7-1.1-4.2c0-0.9,0.3-1.3,1.1-2.2c2.7-3,5.4-5.8,8.5-8.4c-1.9-0.2-3.9-0.3-6-0.3
			c-0.9,0-2.5,0-3.2,0c-1.1,0-1.4-0.3-1.4-1.4c0-1.3,0.2-2.6,0.6-4c0.3-1,0.8-1.4,2.3-1.5c0.8,0,1.7,0,2.6,0c4.3,0,9.1,0.3,12.9,0.7
			c1.3,0.1,1.8,0.5,2.1,1.6c0.2,0.8,0.3,1.6,0.3,2.5c0,1.5-0.4,2.1-1.4,3.1c-3,2.7-5.8,5.4-8.5,8.5c2.6-0.1,5-0.3,7.4-0.7
			c0.3,0,0.6-0.1,0.8-0.1c0.7,0,1.1,0.4,1.1,1.5c0,1-0.3,2.5-0.5,3.5c-0.3,1.1-0.6,1.5-2,1.7c-3.8,0.6-8.9,0.9-13.2,1
			C635.9,289.2,635.2,288.8,634.8,287.9z"/>
		<path class="st2" d="M666.6,260c0,2.4-0.9,4.1-4.8,4.1c-3.4,0-4.6-1-4.6-4.5c0-3,1.3-4.4,4.6-4.4C665.3,255.2,666.6,256,666.6,260
			z M659.5,266.5c1-0.2,2.5-0.3,3.8-0.3c0.6,0,1.1,0,1.5,0c0.9,0,1,0.4,1,1.9c0,6.6-0.1,12.1-0.6,18.3c-0.1,1.9-0.2,2.6-2.5,2.6
			c-0.8,0-1.7,0-2.6-0.1c-1.9-0.2-2.2-0.9-2.3-2.5c-0.1-2.2-0.2-4.4-0.2-6.6c0-3.5,0.1-7,0.4-10.6
			C658.1,267.7,658.2,266.7,659.5,266.5z"/>
		<path class="st2" d="M673,266.1c1.4-0.4,4.2-0.6,5.8-0.6c0.9,0,1.2,0.5,1.2,1.2c0,0.4,0,0.8-0.1,1.3c2.3-1.6,4.9-2.4,7.6-2.4
			c2.6,0,7.2,0.7,7.2,6.6c0,3.3-0.3,9.2-1.1,14.7c-0.1,1.1-0.4,2.1-2,2.1c-0.9,0-2.6-0.2-4-0.5c-1.1-0.2-1.5-0.9-1.5-2
			c0-1.3,0.5-3.8,0.5-11.4c0-1.5-0.6-2.5-1.8-2.5c-1.5,0-3.3,0.6-5.1,1.8c0,4,0.2,7.9,0.6,11.8c0,0.4,0.1,0.7,0.1,1
			c0,1.1-0.5,1.6-2.5,1.7c-0.4,0-1,0-1.5,0c-0.6,0-1.1,0-1.5,0c-1.9-0.1-2.3-0.8-2.5-2.3c-0.5-4.7-0.8-9.6-0.8-14.4
			c0-1.1,0-2.2,0-3.3C671.7,267.4,671.8,266.4,673,266.1z"/>
		<path class="st2" d="M714.6,300c-4.4,0-7.6-0.7-11.3-2.4c-0.9-0.4-1.5-1-1.5-1.9c0-0.8,0.7-2.6,1.3-3.9c0.4-0.7,0.7-1,1.3-1
			c0.3,0,0.7,0.1,1.2,0.3c3.1,1.1,5.5,1.3,8.7,1.3c0.3-1.9,0.6-4.1,0.7-6.4c-2,1.6-4.4,2.4-7,2.4c-5.9,0-9.5-4.1-9.5-9.3
			c0-7.6,6.6-13.5,13.3-13.5c1.2,0,2.2,0.1,3.4,0.5c0.1-0.9,0.4-1.2,1.2-1.2c0.8,0,3,0.3,4.6,0.7c1.5,0.4,2.2,0.8,2.3,3
			c0.1,1.7,0.2,4.1,0.2,7c0,6.4-0.4,14.5-1.2,19.2C721.6,297.7,718.7,300,714.6,300z M715.3,274.6v-2c-0.7-0.3-1.6-0.5-2.7-0.5
			c-3.8,0-5.8,3.6-5.8,5.9c0,2.2,1.5,3.7,4,3.7c1.5,0,3-0.6,4.5-1.9C715.3,278,715.3,276.2,715.3,274.6z"/>
		<path class="st2" d="M741.9,257c4.8-0.9,9.7-1.3,15-1.3c4.6,0,13.9,1,13.9,6.1c0,3.7-1.6,7.1-4.5,10.2c-1.9,2-5.4,4.6-8.6,6.4
			c-0.6,0.3-1.2,0.5-1.7,0.5c-0.6,0-1.2-0.2-1.7-0.7c-1-0.9-1.8-1.9-2.3-3c0.8,10.2,0.9,10.6,0.9,11.8c0,1.4-0.6,1.9-2,2.3
			c-1.3,0.3-2.7,0.4-4.1,0.4c-1.3,0-2.2-0.7-2.4-2c-1-7.3-1.3-14.6-1.4-22.3l-0.9,0.1c-0.3,0-0.6,0.1-0.9,0.1
			c-0.8,0-1.3-0.4-1.6-1.5c-0.2-1-0.4-2.1-0.4-3.2c0-0.6,0-1.1,0.1-1.6C739.5,258.1,740.3,257.4,741.9,257z M751.8,271.3
			c3.8-1.1,7.6-3.5,10.2-6.4c-1.7-0.5-4-0.7-6.5-0.7c-1.3,0-2.7,0-4.1,0.1C751.5,266.6,751.6,269,751.8,271.3z"/>
		<path class="st2" d="M788.4,267.5c0,0.2,0,0.4-0.1,1.1c4.8,1.2,7.7,4.9,7.7,10c0,7.1-6.4,11-12.3,11c-8.1,0-13.2-4-13.2-11.5
			c0-7.6,6.7-12.6,13.1-12.6c1,0,2.4,0.2,3.5,0.5C787.9,266.3,788.4,266.5,788.4,267.5z M783.7,272.4c-3.2,0.3-5.5,2.7-5.5,6
			c0,2.7,2.3,4.3,5,4.3c2.6,0,5.3-1.6,5.3-4.3c0-1.8-1.2-2.9-2.9-3.4C784.2,274.5,783.7,274.2,783.7,272.4z"/>
		<path class="st2" d="M802,267.6v-1.3c0-1.2,0-2.3,0.1-3.7c0.1-2.3,0.7-3.2,6.4-3.2c1.4,0,1.9,0.7,1.9,2.1c0,0.6-0.2,3.8-0.3,6
			c1.1,0.1,2.1,0.2,3.2,0.4c1.3,0.2,1.7,0.7,1.7,1.9c0,0.6-0.1,1.8-0.2,2.6c-0.2,1.2-0.8,1.6-2.1,1.7c-0.8,0.1-2,0.2-2.5,0.2
			c0.1,4.1,0.6,11.4,0.6,12.7c0,1.1-0.4,1.6-1.7,1.8c-1.2,0.2-2.4,0.3-3.5,0.3c-1.2,0-1.7-0.4-1.9-1.9c-0.6-4.4-1-8.6-1.3-13.1
			l-1.2-0.1c-1.3-0.1-1.8-0.5-1.9-1.9c0-0.6-0.1-1.4-0.1-1.9C799.1,268.1,799.6,267.8,802,267.6z"/>
		<path class="st2" d="M825.9,280.2c1.3,1.4,3.3,2.3,5.5,2.3c1.6,0,4-0.5,5.8-1.3c0.4-0.2,0.7-0.3,1-0.3c0.5,0,0.7,0.4,0.9,1
			c0.2,0.6,0.4,1.3,0.5,2c0.1,0.4,0.1,0.6,0.1,0.9c0,0.6-0.2,1.1-0.7,1.6c-1.9,1.8-5.4,3-9.6,3c-6.1,0-11.6-4.6-11.6-11.6
			c0-7.1,5.8-12.1,12.1-12.1c8.6,0,11.4,7.1,11.4,10.5c0,0.7-0.2,1.4-1.2,1.8C837,279.1,830.9,279.9,825.9,280.2z M825.1,275.5
			c2.8-0.1,6.1-0.3,8.7-0.9c-0.7-1.8-2.3-2.5-3.8-2.5C827.8,272.1,825.7,273.5,825.1,275.5z"/>
		<path class="st2" d="M846.5,266.1c1.4-0.4,4.2-0.6,5.8-0.6c0.9,0,1.2,0.5,1.2,1.2c0,0.4,0,0.8-0.1,1.3c2.3-1.6,4.9-2.4,7.6-2.4
			c2.6,0,7.2,0.7,7.2,6.6c0,3.3-0.3,9.2-1.1,14.7c-0.1,1.1-0.4,2.1-2,2.1c-0.9,0-2.6-0.2-4-0.5c-1.1-0.2-1.5-0.9-1.5-2
			c0-1.3,0.5-3.8,0.5-11.4c0-1.5-0.6-2.5-1.8-2.5c-1.5,0-3.3,0.6-5.1,1.8c0,4,0.2,7.9,0.6,11.8c0,0.4,0.1,0.7,0.1,1
			c0,1.1-0.5,1.6-2.5,1.7c-0.4,0-1,0-1.5,0c-0.6,0-1.1,0-1.5,0c-1.9-0.1-2.3-0.8-2.5-2.3c-0.5-4.7-0.8-9.6-0.8-14.4
			c0-1.1,0-2.2,0-3.3C845.3,267.4,845.3,266.4,846.5,266.1z"/>
		<path class="st2" d="M874.5,267.6v-1.3c0-1.2,0-2.3,0.1-3.7c0.1-2.3,0.7-3.2,6.4-3.2c1.4,0,1.9,0.7,1.9,2.1c0,0.6-0.2,3.8-0.3,6
			c1.1,0.1,2.1,0.2,3.2,0.4c1.3,0.2,1.7,0.7,1.7,1.9c0,0.6-0.1,1.8-0.2,2.6c-0.2,1.2-0.8,1.6-2.1,1.7c-0.8,0.1-2,0.2-2.5,0.2
			c0.1,4.1,0.6,11.4,0.6,12.7c0,1.1-0.4,1.6-1.7,1.8c-1.2,0.2-2.4,0.3-3.5,0.3c-1.2,0-1.7-0.4-1.9-1.9c-0.6-4.4-1-8.6-1.3-13.1
			l-1.2-0.1c-1.3-0.1-1.8-0.5-1.9-1.9c0-0.6-0.1-1.4-0.1-1.9C871.6,268.1,872.1,267.8,874.5,267.6z"/>
		<path class="st2" d="M900.5,260c0,2.4-0.9,4.1-4.8,4.1c-3.4,0-4.6-1-4.6-4.5c0-3,1.3-4.4,4.6-4.4C899.1,255.2,900.5,256,900.5,260
			z M893.3,266.5c1-0.2,2.5-0.3,3.8-0.3c0.6,0,1.1,0,1.5,0c0.9,0,1,0.4,1,1.9c0,6.6-0.1,12.1-0.6,18.3c-0.1,1.9-0.2,2.6-2.5,2.6
			c-0.8,0-1.7,0-2.6-0.1c-1.9-0.2-2.2-0.9-2.3-2.5c-0.1-2.2-0.2-4.4-0.2-6.6c0-3.5,0.1-7,0.4-10.6
			C891.9,267.7,892.1,266.7,893.3,266.5z"/>
		<path class="st2" d="M921,286.9c-2,1.6-4.4,2.5-7.1,2.5c-5.9,0-9.6-4.1-9.6-9.6c0-7.9,6.6-14.1,13.2-14.1c1.3,0,2.8,0.3,4.1,0.8
			c0.1-1.2,0.5-1.5,1.3-1.5c1,0,3,0.3,4.5,0.7c1.5,0.4,2.2,0.8,2.2,3c0,5.5-0.3,12-1,17.7c-0.2,1.8-0.7,2.5-2.4,2.6
			c-0.6,0.1-1.3,0.1-1.9,0.1c-0.6,0-1.1,0-1.5,0C921.1,288.9,921,288.2,921,286.9z M921.7,273c-0.9-0.4-1.9-0.6-3.1-0.6
			c-3.8,0-5.8,3.7-5.8,6.2c0,2.3,1.4,3.8,4,3.8c1.5,0,3.1-0.6,4.5-2C921.5,277.9,921.6,275.4,921.7,273z"/>
		<path class="st2" d="M937.3,256.1c1.4-0.4,3.5-0.6,4.8-0.6c0.9,0,1.3,0.4,1.3,1.8c0,1.4,0,2.9,0,4.5c0,8.5-0.3,18.9-0.8,24.3
			c-0.1,1.7-0.2,2.5-2.2,2.7c-0.4,0-0.7,0-1.1,0c-0.5,0-1,0-1.4,0c-1.9-0.1-2.3-0.8-2.4-2.3c-0.2-2.7-0.4-7-0.4-11.7
			c0-5.2,0.2-11,0.7-16C936.1,256.8,936.3,256.3,937.3,256.1z"/>
		<path class="st2" d="M960.2,284.5c0,2.6-1,4.5-5.3,4.5c-3.8,0-5.1-1.1-5.1-5c0-3.3,1.4-4.9,5.1-4.9
			C958.7,279.2,960.2,280,960.2,284.5z"/>
	</g>
</g>
</svg>
