<svg width="802" height="212" viewBox="0 0 802 212" fill="none" xmlns="http://www.w3.org/2000/svg">
<path fill-rule="evenodd" clip-rule="evenodd" d="M16 196L164.36 24.432C164.415 24.369 164.477 24.2961 164.547 24.2147C165.251 23.3957 166.702 21.7064 168.182 20.4099L168.198 20.3958C169.255 19.4703 176.131 13.446 185.23 17.2439C194.33 21.0418 195.555 30.447 195.743 31.8918L195.746 31.9139C196.01 33.9385 196.003 36.2305 195.999 37.3416C195.999 37.4521 195.998 37.5509 195.998 37.6366L195.998 175.376H164.734L164.734 73.2022L58.5474 196H16ZM164.722 35.9298C164.721 35.9089 164.721 35.8977 164.721 35.8974C164.721 35.8972 164.721 35.901 164.721 35.9091C164.722 35.9142 164.722 35.9211 164.722 35.9298ZM188.428 45.8217C188.442 45.8073 188.448 45.8005 188.448 45.8006C188.448 45.8006 188.445 45.8042 188.439 45.8109L188.428 45.8217Z" fill="#FFA100"/>
<path d="M291.227 173.918C281.17 173.918 272.52 171.787 265.276 167.526C258.074 163.222 252.534 157.256 248.656 149.628C244.821 142 242.903 133.222 242.903 123.293C242.903 113.236 244.842 104.415 248.72 96.8295C252.641 89.2017 258.202 83.2571 265.403 78.9957C272.605 74.6918 281.17 72.5398 291.099 72.5398C299.665 72.5398 307.165 74.0952 313.599 77.206C320.034 80.3168 325.126 84.6847 328.876 90.3097C332.626 95.9347 334.693 102.54 335.077 110.125H309.381C308.656 105.224 306.739 101.283 303.628 98.2997C300.56 95.2741 296.533 93.7614 291.547 93.7614C287.328 93.7614 283.642 94.9119 280.489 97.2131C277.378 99.4716 274.949 102.774 273.202 107.121C271.455 111.467 270.581 116.73 270.581 122.909C270.581 129.173 271.433 134.5 273.138 138.889C274.885 143.278 277.335 146.624 280.489 148.925C283.642 151.226 287.328 152.376 291.547 152.376C294.658 152.376 297.449 151.737 299.92 150.459C302.435 149.18 304.501 147.327 306.121 144.898C307.783 142.426 308.869 139.464 309.381 136.013H335.077C334.651 143.513 332.605 150.118 328.94 155.828C325.318 161.496 320.311 165.928 313.919 169.124C307.527 172.32 299.963 173.918 291.227 173.918ZM389.672 173.918C379.743 173.918 371.156 171.808 363.912 167.589C356.71 163.328 351.149 157.405 347.229 149.82C343.308 142.192 341.348 133.349 341.348 123.293C341.348 113.151 343.308 104.287 347.229 96.7017C351.149 89.0739 356.71 83.1506 363.912 78.9318C371.156 74.6705 379.743 72.5398 389.672 72.5398C399.601 72.5398 408.166 74.6705 415.368 78.9318C422.612 83.1506 428.195 89.0739 432.115 96.7017C436.035 104.287 437.996 113.151 437.996 123.293C437.996 133.349 436.035 142.192 432.115 149.82C428.195 157.405 422.612 163.328 415.368 167.589C408.166 171.808 399.601 173.918 389.672 173.918ZM389.8 152.824C394.317 152.824 398.088 151.545 401.114 148.989C404.139 146.389 406.419 142.852 407.953 138.378C409.53 133.903 410.318 128.811 410.318 123.101C410.318 117.391 409.53 112.298 407.953 107.824C406.419 103.349 404.139 99.8125 401.114 97.2131C398.088 94.6136 394.317 93.3139 389.8 93.3139C385.24 93.3139 381.405 94.6136 378.294 97.2131C375.226 99.8125 372.903 103.349 371.327 107.824C369.793 112.298 369.026 117.391 369.026 123.101C369.026 128.811 369.793 133.903 371.327 138.378C372.903 142.852 375.226 146.389 378.294 148.989C381.405 151.545 385.24 152.824 389.8 152.824ZM530.192 101.815L505.263 103.349C504.837 101.219 503.921 99.3011 502.514 97.5966C501.108 95.8494 499.254 94.4645 496.953 93.4418C494.695 92.3764 491.989 91.8438 488.835 91.8438C484.617 91.8438 481.058 92.7386 478.161 94.5284C475.263 96.2756 473.814 98.6193 473.814 101.56C473.814 103.903 474.752 105.885 476.627 107.504C478.502 109.124 481.719 110.423 486.279 111.403L504.049 114.983C513.594 116.943 520.71 120.097 525.398 124.443C530.085 128.79 532.429 134.5 532.429 141.574C532.429 148.009 530.533 153.655 526.74 158.513C522.99 163.371 517.834 167.163 511.272 169.891C504.752 172.575 497.23 173.918 488.708 173.918C475.71 173.918 465.355 171.212 457.642 165.8C449.972 160.345 445.476 152.93 444.155 143.555L470.938 142.149C471.747 146.112 473.708 149.138 476.818 151.226C479.929 153.271 483.914 154.294 488.772 154.294C493.544 154.294 497.379 153.378 500.277 151.545C503.218 149.67 504.709 147.263 504.752 144.322C504.709 141.851 503.665 139.827 501.62 138.25C499.574 136.631 496.421 135.395 492.159 134.543L475.156 131.155C465.568 129.237 458.431 125.913 453.743 121.183C449.098 116.453 446.776 110.423 446.776 103.094C446.776 96.7869 448.48 91.3537 451.889 86.794C455.341 82.2344 460.178 78.7188 466.399 76.2472C472.664 73.7756 479.993 72.5398 488.388 72.5398C500.789 72.5398 510.547 75.1605 517.664 80.402C524.823 85.6435 528.999 92.7812 530.192 101.815ZM542.376 172V73.8182H569.606V172H542.376ZM556.055 61.1619C552.007 61.1619 548.534 59.8196 545.636 57.1349C542.781 54.4077 541.353 51.1477 541.353 47.3551C541.353 43.6051 542.781 40.3878 545.636 37.7031C548.534 34.9758 552.007 33.6122 556.055 33.6122C560.103 33.6122 563.555 34.9758 566.41 37.7031C569.308 40.3878 570.757 43.6051 570.757 47.3551C570.757 51.1477 569.308 54.4077 566.41 57.1349C563.555 59.8196 560.103 61.1619 556.055 61.1619ZM611.449 115.239V172H584.219V73.8182H610.171V91.1406H611.321C613.494 85.4304 617.138 80.9133 622.252 77.5895C627.365 74.223 633.565 72.5398 640.852 72.5398C647.671 72.5398 653.615 74.0312 658.686 77.0142C663.757 79.9972 667.699 84.2585 670.511 89.7983C673.324 95.2955 674.73 101.858 674.73 109.486V172H647.5V114.344C647.543 108.335 646.009 103.648 642.898 100.281C639.787 96.8722 635.504 95.1676 630.05 95.1676C626.385 95.1676 623.146 95.956 620.334 97.5327C617.564 99.1094 615.391 101.411 613.814 104.436C612.28 107.419 611.492 111.02 611.449 115.239ZM733.736 173.918C723.636 173.918 714.943 171.872 707.656 167.781C700.412 163.648 694.83 157.81 690.909 150.267C686.989 142.682 685.028 133.712 685.028 123.357C685.028 113.257 686.989 104.393 690.909 96.7656C694.83 89.1378 700.348 83.1932 707.464 78.9318C714.624 74.6705 723.018 72.5398 732.649 72.5398C739.126 72.5398 745.156 73.5838 750.739 75.6719C756.364 77.7173 761.264 80.8068 765.44 84.9403C769.659 89.0739 772.94 94.2727 775.284 100.537C777.628 106.759 778.8 114.045 778.8 122.398V129.876H695.895V113.001H753.168C753.168 109.081 752.315 105.608 750.611 102.582C748.906 99.5568 746.541 97.1918 743.516 95.4872C740.533 93.7401 737.06 92.8665 733.097 92.8665C728.963 92.8665 725.298 93.8253 722.102 95.7429C718.949 97.6179 716.477 100.153 714.688 103.349C712.898 106.503 711.982 110.018 711.939 113.896V129.94C711.939 134.798 712.834 138.996 714.624 142.533C716.456 146.07 719.034 148.797 722.358 150.714C725.682 152.632 729.624 153.591 734.183 153.591C737.209 153.591 739.979 153.165 742.493 152.312C745.007 151.46 747.159 150.182 748.949 148.477C750.739 146.773 752.102 144.685 753.04 142.213L778.224 143.875C776.946 149.926 774.325 155.21 770.362 159.727C766.442 164.202 761.371 167.696 755.149 170.21C748.97 172.682 741.832 173.918 733.736 173.918Z" fill="#3395FF"/>
</svg>
