<svg width="187" height="36" fill="none" xmlns="http://www.w3.org/2000/svg"><path d="M50.04 20.863v6.012h-3.517V9.812h6.657c1.28 0 2.406.235 3.375.704.976.468 1.726 1.136 2.25 2.004.523.859.785 1.84.785 2.94 0 1.673-.574 2.993-1.723 3.962-1.14.96-2.722 1.441-4.746 1.441H50.04Zm0-2.847h3.14c.93 0 1.636-.22 2.12-.657.493-.437.74-1.062.74-1.875 0-.836-.247-1.511-.74-2.027-.491-.516-1.171-.781-2.038-.797h-3.223v5.356Zm22.24 1.464h-6.75v4.57h7.922v2.824H62.016V9.812H73.43v2.848h-7.9v4.067h6.75v2.753Zm16.313-6.82h-5.227v14.214h-3.515V12.66h-5.157V9.812h13.899v2.848Zm12.281 6.82h-6.75v4.57h7.922v2.824H90.609V9.812h11.414v2.848h-7.898v4.067h6.75v2.753Zm9.551 1.148h-2.801v6.246h-3.516V9.812h6.34c2.016 0 3.571.45 4.664 1.348 1.094.899 1.641 2.168 1.641 3.809 0 1.164-.254 2.136-.762 2.918-.5.773-1.262 1.39-2.285 1.851l3.691 6.973v.164h-3.773l-3.199-6.246Zm-2.801-2.848h2.836c.883 0 1.566-.222 2.051-.668.484-.453.726-1.074.726-1.863 0-.805-.23-1.438-.691-1.898-.453-.461-1.152-.692-2.098-.692h-2.824v5.121Zm20.66 4.617c0-.664-.234-1.171-.703-1.523-.469-.36-1.312-.734-2.531-1.125-1.219-.398-2.184-.79-2.895-1.172-1.937-1.047-2.906-2.457-2.906-4.23 0-.922.258-1.743.773-2.461.524-.727 1.27-1.293 2.239-1.7.976-.406 2.07-.609 3.281-.609 1.219 0 2.305.223 3.258.668.953.438 1.691 1.059 2.215 1.863.531.805.796 1.72.796 2.743h-3.515c0-.782-.246-1.387-.738-1.817-.493-.437-1.184-.656-2.075-.656-.859 0-1.527.184-2.004.55-.476.36-.714.837-.714 1.43 0 .555.277 1.02.832 1.395.562.375 1.386.726 2.472 1.055 2 .601 3.457 1.347 4.371 2.238.914.89 1.371 2 1.371 3.328 0 1.477-.558 2.637-1.675 3.48-1.117.836-2.621 1.254-4.512 1.254-1.313 0-2.508-.238-3.586-.715-1.078-.484-1.902-1.144-2.473-1.98-.562-.836-.843-1.805-.843-2.906h3.527c0 1.883 1.125 2.824 3.375 2.824.836 0 1.488-.168 1.957-.504.469-.344.703-.82.703-1.43Zm19.934-3.668c0 1.68-.297 3.153-.891 4.418-.594 1.266-1.445 2.243-2.555 2.93-1.101.688-2.367 1.031-3.796 1.031-1.415 0-2.676-.34-3.786-1.02-1.109-.679-1.968-1.648-2.578-2.905-.609-1.266-.918-2.72-.925-4.36v-.844c0-1.68.3-3.156.902-4.43.609-1.28 1.465-2.26 2.566-2.94 1.11-.688 2.375-1.032 3.797-1.032 1.422 0 2.684.344 3.785 1.031 1.11.68 1.965 1.66 2.567 2.942.609 1.273.914 2.746.914 4.418v.761Zm-3.563-.773c0-1.789-.32-3.148-.961-4.078-.64-.93-1.554-1.395-2.742-1.395-1.18 0-2.09.461-2.73 1.383-.641.914-.965 2.258-.973 4.031v.832c0 1.743.32 3.094.961 4.055.641.961 1.562 1.442 2.766 1.442 1.179 0 2.085-.461 2.718-1.383.633-.93.953-2.282.961-4.055v-.832Zm19.992 8.918h-3.515l-6.844-11.227v11.227h-3.516V9.812h3.516l6.856 11.25V9.813h3.503v17.063Zm3.821-11.824-1.594-.926c.672-1.055 1.02-2.145 1.043-3.27v-1.98h2.695v1.816c0 .704-.195 1.465-.586 2.286-.39.82-.91 1.511-1.558 2.074Zm13.605 7.347c0-.664-.234-1.171-.703-1.523-.469-.36-1.312-.734-2.531-1.125-1.219-.398-2.184-.79-2.895-1.172-1.937-1.047-2.906-2.457-2.906-4.23 0-.922.258-1.743.773-2.461.524-.727 1.27-1.293 2.239-1.7.976-.406 2.07-.609 3.281-.609 1.219 0 2.305.223 3.258.668.953.438 1.691 1.059 2.215 1.863.531.805.797 1.72.797 2.743h-3.516c0-.782-.246-1.387-.738-1.817-.493-.437-1.184-.656-2.075-.656-.859 0-1.527.184-2.003.55-.477.36-.715.837-.715 1.43 0 .555.277 1.02.832 1.395.562.375 1.386.726 2.472 1.055 2 .601 3.457 1.347 4.371 2.238.915.89 1.372 2 1.372 3.328 0 1.477-.559 2.637-1.676 3.48-1.117.836-2.621 1.254-4.512 1.254-1.312 0-2.508-.238-3.586-.715-1.078-.484-1.902-1.144-2.473-1.98-.562-.836-.843-1.805-.843-2.906h3.527c0 1.883 1.125 2.824 3.375 2.824.836 0 1.488-.168 1.957-.504.469-.344.703-.82.703-1.43Z" fill="#000"/><path d="M29.393 2.73C20.138-2.775 8.23.315 2.723 9.57-2.676 18.72.19 30.495 9.234 36l5.73-9.69C8.784 22.35 6.7 14.19 10.45 7.92 14.2 1.53 22.57-.555 28.974 3.18l.225-.225c-.105.105-.105.225-.105.225 3.645 2.205 4.965 6.945 2.76 10.68-2.1 3.525-6.615 4.845-10.245 2.865l-5.85 9.915c6.39 3.525 14.55 1.32 18.405-5.175 3.72-6.51 1.62-14.88-4.77-18.735Z" fill="#F8593E"/></svg>