<?xml version="1.0" encoding="UTF-8"?>
<svg xmlns="http://www.w3.org/2000/svg" width="358" height="66" viewBox="0 0 358 66" fill="none">
  <g clip-path="url(#clip0_1_27)">
    <path d="M222.4 25.49C223.39 23.88 224.7 22.66 226.34 21.84C227.97 21.02 229.73 20.61 231.59 20.61C234.85 20.61 237.47 21.55 239.46 23.44C241.45 25.32 242.45 27.85 242.45 31.01V46.83H239.32V31.96C239.32 29.35 238.59 27.29 237.14 25.8C235.69 24.31 233.65 23.56 231.04 23.56C228.59 23.56 226.54 24.36 224.88 25.96C223.22 27.56 222.4 29.61 222.4 32.12V46.82H219.27V11.58H222.4V25.49Z" fill="#003660"></path>
    <path d="M257.91 20.61C261.37 20.61 264.24 21.84 266.52 24.31C268.81 26.78 269.97 29.93 270 33.77C270 34.08 269.98 34.51 269.95 35.06H248.31C248.53 37.98 249.57 40.29 251.43 41.99C253.29 43.68 255.58 44.52 258.29 44.52C261.62 44.52 264.52 43.3 267.01 40.84L268.68 42.98C265.85 45.81 262.32 47.23 258.09 47.23C254.29 47.23 251.17 46 248.75 43.53C246.33 41.06 245.12 37.86 245.12 33.93C245.12 30 246.34 26.86 248.77 24.36C251.2 21.85 254.25 20.6 257.9 20.6L257.91 20.61ZM257.86 23.38C255.28 23.38 253.13 24.22 251.4 25.89C249.67 27.56 248.66 29.72 248.37 32.38H266.83C266.61 29.71 265.67 27.54 263.99 25.88C262.32 24.22 260.28 23.38 257.86 23.38Z" fill="#003660"></path>
    <path d="M298.92 46.83H295.82V41.86C294.74 43.56 293.34 44.88 291.61 45.83C289.89 46.77 287.88 47.24 285.59 47.24C281.95 47.24 278.89 45.98 276.41 43.46C273.93 40.94 272.69 37.76 272.69 33.94C272.69 30.12 273.93 26.94 276.41 24.41C278.89 21.88 281.95 20.61 285.59 20.61C287.86 20.61 289.85 21.09 291.58 22.03C293.31 22.98 294.72 24.3 295.82 25.98V21.01H298.92V46.82V46.83ZM285.95 23.55C283.03 23.55 280.62 24.55 278.73 26.54C276.84 28.53 275.89 31 275.89 33.94C275.89 36.88 276.84 39.35 278.74 41.33C280.64 43.31 283.05 44.3 285.95 44.3C288.85 44.3 291.26 43.32 293.15 41.35C295.04 39.38 295.99 36.91 295.99 33.93C295.99 30.95 295.04 28.47 293.15 26.5C291.26 24.52 288.86 23.54 285.95 23.54V23.55Z" fill="#003660"></path>
    <path d="M306.38 46.83H303.25V11.58H306.38V46.83Z" fill="#003660"></path>
    <path d="M330.42 23.87H318.52V37.94C318.52 40.06 319.03 41.65 320.06 42.71C321.08 43.77 322.48 44.3 324.26 44.3C326.42 44.3 328.34 43.64 330.02 42.32L331.5 44.65C329.42 46.37 326.92 47.23 324.01 47.23C321.27 47.23 319.15 46.46 317.65 44.91C316.15 43.37 315.41 41.06 315.41 37.98V23.86H309.48V21.01H315.41V11.57H318.53V21.01H330.43V23.86L330.42 23.87Z" fill="#003660"></path>
    <path d="M337.7 25.49C338.69 23.88 340 22.66 341.64 21.84C343.28 21.02 345.02 20.61 346.89 20.61C350.14 20.61 352.77 21.55 354.76 23.44C356.75 25.32 357.75 27.85 357.75 31.01V46.83H354.63V31.96C354.63 29.35 353.9 27.29 352.45 25.8C351 24.31 348.96 23.56 346.34 23.56C343.89 23.56 341.84 24.36 340.18 25.96C338.52 27.56 337.7 29.61 337.7 32.12V46.82H334.58V11.58H337.7V25.49Z" fill="#003660"></path>
    <path d="M91.06 46.83H84.25L73.69 20.56H79.94L87.7 40.88L95.46 20.56H101.55L91.05 46.83H91.06Z" fill="#003660"></path>
    <path d="M127.59 46.83H121.86V43.68C119.85 46.24 117.1 47.52 113.61 47.52C109.9 47.52 106.78 46.21 104.26 43.6C101.74 40.98 100.47 37.69 100.47 33.7C100.47 29.71 101.73 26.41 104.26 23.8C106.78 21.18 109.9 19.88 113.61 19.88C117.08 19.88 119.84 21.17 121.86 23.75V20.57H127.59V46.84V46.83ZM114.29 25.27C111.89 25.27 109.97 26.08 108.53 27.7C107.09 29.32 106.36 31.32 106.36 33.69C106.36 36.06 107.08 38.06 108.53 39.68C109.98 41.3 111.89 42.11 114.29 42.11C116.69 42.11 118.54 41.31 120.01 39.72C121.48 38.13 122.22 36.12 122.22 33.69C122.22 31.26 121.48 29.25 120.01 27.66C118.54 26.07 116.63 25.27 114.29 25.27Z" fill="#003660"></path>
    <path d="M137.85 46.83H132.09V11.58H137.85V46.83Z" fill="#003660"></path>
    <path d="M153.97 19.87C157.65 19.87 160.64 21.14 162.94 23.7C165.24 26.25 166.4 29.57 166.4 33.67C166.4 34.51 166.36 35.22 166.29 35.81H146.87C147.22 38.04 148.11 39.72 149.55 40.83C150.99 41.95 152.7 42.5 154.69 42.5C157.45 42.5 159.98 41.58 162.29 39.73L165.15 43.82C162.26 46.29 158.66 47.52 154.34 47.52C150.37 47.52 147.14 46.25 144.65 43.72C142.15 41.19 140.91 37.85 140.91 33.7C140.91 29.55 142.12 26.25 144.54 23.7C146.96 21.15 150.11 19.87 153.99 19.87H153.97ZM153.86 24.97C151.88 24.97 150.3 25.55 149.11 26.71C147.92 27.87 147.18 29.45 146.89 31.44H160.52C160.21 29.39 159.47 27.8 158.31 26.67C157.15 25.54 155.66 24.97 153.86 24.97Z" fill="#003660"></path>
    <path d="M213.84 46.83H208.11V43.68C206.1 46.24 203.35 47.52 199.86 47.52C196.15 47.52 193.03 46.21 190.51 43.6C187.99 40.98 186.73 37.69 186.73 33.7C186.73 29.71 187.99 26.41 190.51 23.8C193.03 21.18 196.15 19.88 199.86 19.88C203.33 19.88 206.09 21.17 208.11 23.75V20.57H213.84V46.84V46.83ZM200.54 25.27C198.15 25.27 196.22 26.08 194.78 27.7C193.33 29.32 192.61 31.32 192.61 33.69C192.61 36.06 193.33 38.06 194.78 39.68C196.22 41.3 198.14 42.11 200.54 42.11C202.94 42.11 204.78 41.31 206.26 39.72C207.73 38.13 208.47 36.12 208.47 33.69C208.47 31.26 207.73 29.25 206.26 27.66C204.79 26.07 202.88 25.27 200.54 25.27Z" fill="#003660"></path>
    <path d="M185.79 20.23C184.86 20.01 183.87 19.86 182.74 19.86C179.36 19.86 176.82 21.08 175.12 23.51V20.55H169.44V46.82H175.17V32.37C175.17 30.16 175.74 28.43 176.9 27.19C178.05 25.95 179.56 25.33 181.43 25.33C183.11 25.33 184.56 25.65 185.79 26.29V20.24V20.23Z" fill="#003660"></path>
    <path d="M36.81 1.08999C31.77 -2.41001 29.88 5.42999 29.88 5.42999C29.88 5.42999 26.96 -2.24001 21.89 0.639993C14.05 5.08999 25.75 20.01 30.56 19.3C31.3 19.19 35.46 15.35 36.73 13.6C41.47 7.09999 38.53 2.28999 36.81 1.08999Z" fill="#7C6DAD"></path>
    <path d="M39.89 24.06C40.87 26.7 58.94 30.1 60.69 23.64C62.48 17.02 50.7 16.7 50.7 16.7C50.7 16.7 54.58 7.51999 48.72 6.77999C40.11 5.69999 39.69 23.53 39.89 24.05V24.06Z" fill="#5389C5"></path>
    <path d="M20.08 24.07C16.91 25.3 2.29001 30.46 0.660013 22.29C-0.629987 15.86 8.30001 16.31 8.30001 16.31C8.30001 16.31 4.31001 14.77 5.19001 10.03C5.89001 6.26999 15.17 4.44999 19.09 15.61C20.56 19.81 20.46 23.92 20.09 24.07H20.08Z" fill="#34A9AD"></path>
    <path d="M40.78 32.35C40.44 32.57 40.16 32.85 40.12 33.27C39.9 35.33 38.86 42.03 43 46.13C45.51 48.61 49.88 51.05 52.95 47.23C55.09 44.57 50.91 38.97 50.91 38.97C50.91 38.97 59.86 40.55 59.32 35.04C58.87 30.49 46.36 28.71 40.79 32.35H40.78Z" fill="#EE9F56"></path>
    <path d="M30.66 41.66C26.23 41.66 22.94 44.92 22.94 49.22C22.94 52.63 25.37 55.6 28.8 56.34C29.09 56.34 29.09 56.64 29.09 56.78C29.09 57.9 27.85 60.01 26.22 62.2C25.57 63.07 25.74 64.31 26.62 64.96L26.99 65.24C27.78 65.83 28.89 65.77 29.6 65.08C34.14 60.66 38.24 55.08 38.24 49.23C38.24 44.93 34.67 41.67 30.67 41.67L30.66 41.66Z" fill="#003660"></path>
    <path d="M30.77 37.63C34.79 37.58 38.25 34.35 38.23 30.33C38.21 26.05 34.65 22.8 30.66 22.8C26.23 22.8 22.94 26.06 22.94 30.36C22.94 34.4 26.28 37.68 30.77 37.63Z" fill="#003660"></path>
    <path d="M20.65 32.98C19.34 29.19 0.720011 26.7 0.0200111 35.73C-0.469989 42.02 11.13 39.05 11.13 39.05C11.13 39.05 11.13 39.08 11.1 39.09C8.61001 40.44 5.34001 45.88 8.92001 47.83C13.46 50.3 17.82 46.54 19.64 42.5C21.9 37.47 20.8 33.34 20.67 32.98H20.65Z" fill="#EA5C66"></path>
  </g>
  <defs>
    <clipPath id="clip0_1_27">
      <rect width="357.74" height="65.64" fill="white"></rect>
    </clipPath>
  </defs>
</svg>
