<?xml version="1.0" encoding="UTF-8"?>
<svg xmlns="http://www.w3.org/2000/svg" width="278" height="51" viewBox="0 0 278 51" fill="none">
  <g clip-path="url(#clip0_3_225)">
    <path d="M172.827 19.8048C173.597 18.5539 174.615 17.606 175.889 16.9689C177.156 16.3318 178.523 16.0133 179.969 16.0133C182.502 16.0133 184.538 16.7436 186.085 18.2121C187.631 19.6728 188.408 21.6385 188.408 24.0937V36.3853H185.976V24.8318C185.976 22.8039 185.408 21.2034 184.282 20.0457C183.155 18.888 181.57 18.3053 179.541 18.3053C177.637 18.3053 176.044 18.9269 174.754 20.17C173.464 21.4132 172.827 23.0059 172.827 24.9561V36.3775H170.395V8.99725H172.827V19.8048Z" fill="white"></path>
    <path d="M200.422 16.0133C203.111 16.0133 205.341 16.9689 207.113 18.888C208.892 20.8071 209.794 23.2546 209.817 26.2381C209.817 26.479 209.802 26.8131 209.778 27.2404H192.962C193.133 29.5091 193.941 31.3039 195.386 32.6248C196.832 33.9379 198.611 34.5905 200.717 34.5905C203.305 34.5905 205.559 33.6426 207.494 31.7313L208.791 33.394C206.592 35.5928 203.849 36.6961 200.562 36.6961C197.609 36.6961 195.184 35.7404 193.304 33.8213C191.423 31.9022 190.483 29.4159 190.483 26.3624C190.483 23.309 191.431 20.8693 193.319 18.9269C195.208 16.9767 197.578 16.0055 200.414 16.0055L200.422 16.0133ZM200.383 18.1655C198.378 18.1655 196.707 18.8181 195.363 20.1156C194.019 21.4132 193.234 23.0914 193.009 25.1581H207.354C207.183 23.0836 206.452 21.3976 205.147 20.1079C203.849 18.8181 202.264 18.1655 200.383 18.1655Z" fill="white"></path>
    <path d="M232.291 36.3853H229.882V32.5238C229.043 33.8446 227.955 34.8702 226.61 35.6083C225.274 36.3387 223.712 36.7038 221.932 36.7038C219.104 36.7038 216.726 35.7249 214.798 33.7669C212.871 31.8089 211.908 29.3382 211.908 26.3702C211.908 23.4022 212.871 20.9314 214.798 18.9657C216.726 17 219.104 16.0132 221.932 16.0132C223.696 16.0132 225.243 16.3862 226.587 17.1165C227.931 17.8547 229.027 18.8802 229.882 20.1855V16.324H232.291V36.3775V36.3853ZM222.212 18.2975C219.943 18.2975 218.07 19.0745 216.601 20.6206C215.133 22.1668 214.394 24.0859 214.394 26.3702C214.394 28.6545 215.133 30.5736 216.609 32.112C218.086 33.6504 219.958 34.4196 222.212 34.4196C224.466 34.4196 226.338 33.6581 227.807 32.1275C229.276 30.5969 230.014 28.6778 230.014 26.3624C230.014 24.0471 229.276 22.1202 227.807 20.5896C226.338 19.0512 224.473 18.2898 222.212 18.2898V18.2975Z" fill="white"></path>
    <path d="M238.088 36.3853H235.656V8.99725H238.088V36.3853Z" fill="white"></path>
    <path d="M256.77 18.5462H247.522V29.4781C247.522 31.1252 247.918 32.3606 248.719 33.1842C249.511 34.0078 250.599 34.4196 251.983 34.4196C253.661 34.4196 255.153 33.9068 256.459 32.8812L257.609 34.6915C255.993 36.0279 254.05 36.6961 251.788 36.6961C249.659 36.6961 248.012 36.0978 246.846 34.8935C245.68 33.697 245.105 31.9022 245.105 29.5092V18.5384H240.497V16.3241H245.105V8.9895H247.53V16.3241H256.777V18.5384L256.77 18.5462Z" fill="white"></path>
    <path d="M262.427 19.8048C263.196 18.5539 264.214 17.606 265.489 16.9689C266.763 16.3318 268.115 16.0133 269.568 16.0133C272.094 16.0133 274.138 16.7436 275.684 18.2121C277.231 19.6728 278.008 21.6385 278.008 24.0937V36.3853H275.583V24.8318C275.583 22.8039 275.016 21.2034 273.889 20.0457C272.762 18.888 271.177 18.3053 269.141 18.3053C267.237 18.3053 265.644 18.9269 264.354 20.17C263.064 21.4132 262.427 23.0059 262.427 24.9561V36.3775H260.002V8.99725H262.427V19.8048Z" fill="white"></path>
    <path d="M70.7628 36.3853H65.4707L57.2646 15.9744H62.1214L68.1517 31.7624L74.182 15.9744H78.9146L70.755 36.3853H70.7628Z" fill="white"></path>
    <path d="M99.1503 36.3853H94.6975V33.9378C93.1355 35.9269 90.9985 36.9214 88.2864 36.9214C85.4034 36.9214 82.9788 35.9035 81.0205 33.8757C79.0622 31.84 78.0753 29.2838 78.0753 26.1837C78.0753 23.0836 79.0545 20.5196 81.0205 18.4917C82.9788 16.4561 85.4034 15.446 88.2864 15.446C90.983 15.446 93.1278 16.4483 94.6975 18.4529V15.9822H99.1503V36.393V36.3853ZM88.8148 19.6339C86.9498 19.6339 85.4578 20.2632 84.3387 21.5219C83.2197 22.7806 82.6524 24.3345 82.6524 26.1759C82.6524 28.0173 83.2119 29.5713 84.3387 30.83C85.4655 32.0886 86.9498 32.718 88.8148 32.718C90.6799 32.718 92.1175 32.0964 93.2599 30.861C94.4022 29.6257 94.9773 28.064 94.9773 26.1759C94.9773 24.2879 94.4022 22.7262 93.2599 21.4908C92.1175 20.2555 90.6333 19.6339 88.8148 19.6339Z" fill="white"></path>
    <path d="M107.123 36.3853H102.647V8.99725H107.123V36.3853Z" fill="white"></path>
    <path d="M119.65 15.4383C122.51 15.4383 124.833 16.425 126.621 18.4141C128.408 20.3953 129.31 22.9749 129.31 26.1604C129.31 26.8131 129.278 27.3647 129.224 27.8231H114.133C114.405 29.5558 115.096 30.8611 116.215 31.7235C117.334 32.5937 118.663 33.021 120.21 33.021C122.355 33.021 124.321 32.3062 126.116 30.8688L128.338 34.0466C126.092 35.9657 123.295 36.9214 119.938 36.9214C116.853 36.9214 114.343 35.9346 112.408 33.9689C110.465 32.0032 109.501 29.4081 109.501 26.1837C109.501 22.9593 110.442 20.3953 112.322 18.4141C114.203 16.4328 116.651 15.4383 119.666 15.4383H119.65ZM119.565 19.4008C118.026 19.4008 116.798 19.8515 115.873 20.7527C114.949 21.654 114.374 22.8816 114.148 24.4278H124.74C124.499 22.835 123.924 21.5996 123.023 20.7217C122.121 19.8437 120.964 19.4008 119.565 19.4008Z" fill="white"></path>
    <path d="M166.175 36.3853H161.722V33.9378C160.16 35.9269 158.023 36.9214 155.311 36.9214C152.428 36.9214 150.004 35.9035 148.045 33.8757C146.087 31.84 145.108 29.2838 145.108 26.1837C145.108 23.0836 146.087 20.5196 148.045 18.4917C150.004 16.4561 152.428 15.446 155.311 15.446C158.008 15.446 160.153 16.4483 161.722 18.4529V15.9822H166.175V36.393V36.3853ZM155.84 19.6339C153.983 19.6339 152.483 20.2632 151.364 21.5219C150.237 22.7806 149.677 24.3345 149.677 26.1759C149.677 28.0173 150.237 29.5713 151.364 30.83C152.483 32.0886 153.975 32.718 155.84 32.718C157.705 32.718 159.135 32.0964 160.285 30.861C161.427 29.6257 162.002 28.064 162.002 26.1759C162.002 24.2879 161.427 22.7262 160.285 21.4908C159.142 20.2555 157.658 19.6339 155.84 19.6339Z" fill="white"></path>
    <path d="M144.378 15.718C143.655 15.5471 142.886 15.4305 142.007 15.4305C139.381 15.4305 137.407 16.3784 136.086 18.2665V15.9666H131.672V36.3775H136.125V25.1504C136.125 23.4333 136.568 22.0891 137.469 21.1257C138.363 20.1623 139.536 19.6805 140.989 19.6805C142.295 19.6805 143.422 19.9292 144.378 20.4264V15.7258V15.718Z" fill="white"></path>
    <path d="M28.6051 0.846863C24.6885 -1.87252 23.2198 4.21889 23.2198 4.21889C23.2198 4.21889 20.9506 -1.74043 17.0107 0.497228C10.9183 3.95472 20.0103 15.547 23.7482 14.9954C24.3233 14.9099 27.556 11.9264 28.5429 10.5667C32.2264 5.51642 29.9417 1.77922 28.6051 0.846863Z" fill="white"></path>
    <path d="M30.9985 18.6937C31.7601 20.7449 45.8023 23.3866 47.1622 18.3674C48.5533 13.2239 39.399 12.9753 39.399 12.9753C39.399 12.9753 42.4142 5.84272 37.8603 5.26777C31.1695 4.42864 30.8431 18.2819 30.9985 18.686V18.6937Z" fill="white"></path>
    <path d="M15.6042 18.7015C13.1408 19.6572 1.77956 23.6664 0.512883 17.3186C-0.489577 12.3227 6.44993 12.6723 6.44993 12.6723C6.44993 12.6723 3.3493 11.4758 4.03315 7.79296C4.57712 4.87157 11.7886 3.45749 14.8348 12.1284C15.9772 15.3917 15.8995 18.585 15.6119 18.7015H15.6042Z" fill="white"></path>
    <path d="M31.6902 25.1348C31.4259 25.3058 31.2084 25.5233 31.1773 25.8496C31.0063 27.4502 30.1981 32.6558 33.4153 35.8414C35.3658 37.7683 38.7618 39.6641 41.1475 36.6961C42.8105 34.6293 39.5622 30.2783 39.5622 30.2783C39.5622 30.2783 46.5172 31.5059 46.0976 27.2249C45.7479 23.6897 36.0264 22.3067 31.6979 25.1348H31.6902Z" fill="white"></path>
    <path d="M23.8259 32.3683C20.3834 32.3683 17.8267 34.9013 17.8267 38.2422C17.8267 40.8917 19.715 43.1992 22.3805 43.7742C22.6059 43.7742 22.6059 44.0073 22.6059 44.1161C22.6059 44.9863 21.6423 46.6257 20.3756 48.3272C19.8705 49.0032 20.0026 49.9666 20.6864 50.4716L20.9739 50.6892C21.5879 51.1476 22.4504 51.101 23.0022 50.5649C26.5302 47.1307 29.7163 42.7952 29.7163 38.25C29.7163 34.909 26.9421 32.3761 23.8337 32.3761L23.8259 32.3683Z" fill="white"></path>
    <path d="M23.9114 29.2372C27.0353 29.1983 29.7241 26.6887 29.7086 23.5653C29.693 20.2399 26.9265 17.7148 23.8259 17.7148C20.3834 17.7148 17.8267 20.2477 17.8267 23.5886C17.8267 26.7276 20.4222 29.276 23.9114 29.2372Z" fill="white"></path>
    <path d="M16.0471 25.6243C15.0291 22.6796 0.55951 20.7449 0.0155396 27.7609C-0.36524 32.6481 8.64913 30.3405 8.64913 30.3405C8.64913 30.3405 8.64913 30.3638 8.62582 30.3715C6.69084 31.4204 4.14972 35.6471 6.93174 37.1622C10.4598 39.0813 13.8479 36.1599 15.2623 33.021C17.0185 29.1129 16.1637 25.904 16.0627 25.6243H16.0471Z" fill="white"></path>
  </g>
  <defs>
    <clipPath id="clip0_3_225">
      <rect width="278" height="51" fill="white"></rect>
    </clipPath>
  </defs>
</svg>
